<?xml version="1.0" encoding="UTF-8"?>
<svg id="Layer_2" data-name="Layer 2" xmlns="http://www.w3.org/2000/svg" viewBox="0 0 697.78 331.24">
  <defs>
    <style>
      .cls-1, .cls-2 {
        fill: #f58220;
      }

      .cls-3 {
        fill: #fff;
      }

      .cls-3, .cls-2, .cls-4 {
        fill-rule: evenodd;
      }

      .cls-5, .cls-4 {
        fill: #231f20;
      }
    </style>
  </defs>
  <g id="Layer_1-2" data-name="Layer 1">
    <g>
      <path class="cls-3" d="M130.77,17.29c-64.82,0-117.4,52.58-117.4,117.4s52.58,117.4,117.4,117.4,117.4-52.56,117.4-117.4S195.6,17.29,130.77,17.29ZM130.77,223.14c-48.86,0-88.45-39.6-88.45-88.45s39.6-88.45,88.45-88.45,88.45,39.6,88.45,88.45-39.6,88.45-88.45,88.45Z"/>
      <g>
        <path class="cls-4" d="M32.52,288.1c.55-.14.83-.4.83-.79,0-.1-.02-.21-.05-.33-.29-1.04-.46-1.6-.51-1.67-.26-.49-.75-.72-1.44-.69-1.29.05-2.1.28-2.44.67-.39.42-.77.66-1.14.72-2.1.27-3.34.41-3.75.41-.85-.69-1.45-1.03-1.81-1.03-.23,0-.6.45-1.1,1.33-4.36.34-8.68,1.02-12.97,2.05-3.29.79-4.85,2.02-4.68,3.68.11,1.13.3,2,.56,2.6.37.86,1.17,2.06,2.4,3.61.2.26.42.38.68.38.35,0,.53-.17.53-.51,0-.15-.06-.31-.17-.49-1.02-1.66-1.53-2.87-1.53-3.65,0-.72.47-1.45,1.4-2.19.82-.64,2.56-1.25,5.21-1.83,2.39-.49,4.78-.82,7.17-.99-.15.45-1.11,3-2.88,7.64-1.57,4.11-2.56,6.87-2.98,8.26-.16-.01-.39-.06-.66-.11-.28-.06-.46-.1-.55-.1-.34,0-.65.31-.93.92-.73,1.66-1.1,3.48-1.1,5.49,0,1.11-.01,1.52-.05,1.25.03.27.22.46.58.55.99.3,1.65.45,1.98.45.51,0,.9-.51,1.17-1.54.77-3.17,1.99-7.12,3.63-11.84,1.78-5.18,3.29-8.92,4.51-11.23,2.9-.22,5.73-.5,8.48-.84,1.03-.13,1.58-.21,1.61-.22Z"/>
        <path class="cls-4" d="M41.59,302.83c.54-1.62.82-3.33.82-5.12,0-.49-.13-.82-.4-.99-.18-.1-.58-.19-1.23-.27-.48-.33-.87-.49-1.14-.49-.31,0-.72.3-1.23.9-2.69,3.17-5.09,6.82-7.2,10.96.34-1.32.97-3.15,1.87-5.49.95-2.41,1.59-3.8,1.93-4.2.33-.37.25-.66-.23-.88-.86-.38-1.42-.57-1.7-.57-.39,0-.78.3-1.17.9-1.27,1.66-2.29,2.88-3.04,3.69-.13.15-.19.29-.19.41,0,.21.13.31.4.31.21,0,.39-.08.51-.24.31-.4,1.04-1.13,2.19-2.19-1.41,3.25-2.73,7.24-3.96,11.96-.18.67,0,1.13.53,1.36,1.09.47,1.7.71,1.84.71.35,0,.79-.73,1.31-2.19,1.6-4.6,4-8.75,7.24-12.45.41-.5.72-.74.91-.74.13,0,.18.13.18.39,0,.75-.21,1.75-.65,2.99-.18.5-.09.89.29,1.17.74.55,1.22.82,1.44.82.3,0,.53-.24.7-.74Z"/>
        <path class="cls-4" d="M56.89,297.14c-.23,0-.45.31-.65.92-.13.35-.4.96-.81,1.84-.58,1.19-1.88,2.95-3.92,5.29-1.99,2.25-3.84,4.12-5.59,5.61-.73.64-1.36.97-1.88.97-.31,0-.47-.18-.47-.52,0-.08,0-.17.02-.26.42-2.18,1.65-4.64,3.7-7.37,1.77-2.38,3.38-4.04,4.84-4.98.67-.44,1.56-.45,2.66-.04.11.04.23.06.35.06.33,0,.49-.11.49-.33,0-.13-.07-.24-.21-.35-1.57-1.27-2.64-1.92-3.19-1.94-.57-.01-1.22.28-1.95.88-2.25,1.84-4.24,4.11-5.98,6.79-1.74,2.68-2.75,5.03-3.03,7.06-.03.19-.05.36-.05.51,0,.77.41,1.37,1.24,1.8.57.4,1,.6,1.28.6.34,0,.83-.2,1.48-.6.91-.56,2.37-1.85,4.4-3.89,2.33-2.33,4.16-4.46,5.51-6.39-.98,2.3-1.79,5.18-2.44,8.65-.08.45-.08.75,0,.9.06.16.3.36.72.62.71.43,1.2.65,1.46.65.28,0,.49-.27.63-.82.48-1.94,1.45-3.86,2.91-5.75.13-.17.19-.31.19-.43,0-.2-.12-.31-.35-.31-.25,0-.48.13-.7.37-.1.07-.33.3-.71.7-.38.39-.69.68-.92.88.54-2.36,1.52-5.29,2.95-8.77.18-.41.24-.7.21-.86-.02-.2-.22-.4-.58-.64-.85-.56-1.4-.84-1.63-.84Z"/>
        <path class="cls-4" d="M78.94,305.58c0-.26-.12-.39-.35-.39-.13,0-.25.07-.37.2-.7.81-1.27,1.46-1.72,1.97.36-.97.75-2.33,1.16-4.08.53-2.12.8-3.66.8-4.61.02-.92-.62-1.57-1.91-1.97-.45-.3-.78-.45-.98-.45s-.55.1-1.02.29c-.96.4-2.44,1.68-4.42,3.86-1.99,2.18-3.5,4.15-4.54,5.91,1.58-3.92,2.46-6.63,2.63-8.13.08-.68-.51-1.19-1.77-1.52-.28-.48-.6-.71-.98-.71-.25,0-.48.12-.72.35-1.08,1.12-1.96,2.06-2.63,2.8-.15.14-.23.26-.23.37,0,.15.11.22.33.22.17,0,.33-.06.47-.18.74-.59,1.33-1.07,1.74-1.43.42-.37.64-.56.65-.56.06,0,.08.25.05.74-.12,1.61-.66,3.86-1.6,6.74-.88,2.66-1.77,4.86-2.67,6.59-.17.33-.26.52-.26.57.02.11.17.22.49.35.79.35,1.35.51,1.69.51.48,0,.91-.35,1.26-1.04,2.85-5.63,6.24-10.12,10.15-13.48.4-.34.71-.51.91-.51.28,0,.44.3.47.9.12,1.49-.24,3.64-1.1,6.47-.79,2.69-1.69,4.94-2.7,6.73-.2.33-.3.55-.3.64,0,.23.3.44.91.66.55.2.96.31,1.24.31.36,0,.64-.21.86-.64.26-.62.54-1.23.82-1.85,1.49-2.36,2.7-4.16,3.63-5.4.03-.08.05-.16.05-.25Z"/>
        <path class="cls-4" d="M88.41,296.54c-3.46.67-5.25,1.86-5.37,3.56-.06.71.38,2.12,1.35,4.24.98,2.18,1.46,3.68,1.46,4.55,0,.48-.1.88-.3,1.21-.34.64-.91,1.05-1.72,1.21-2.15.27-3.78.44-4.89.51-.81.07-1.24.29-1.3.66.08.34.3.54.67.59,1.34.18,2.46.33,3.38.45.51.06.99.08,1.44.06.7-.05,1.23-.24,1.59-.57.23-.22.48-.61.74-1.19,2.11-.6,3.14-1.72,3.1-3.36-.02-.79-.31-1.94-.88-3.46-.78-2.1-1.25-3.43-1.4-3.98-.16-.55-.23-1.01-.23-1.39,0-.94.83-1.73,2.51-2.38.25-.09.37-.22.37-.39,0-.29-.17-.4-.51-.33Z"/>
        <path class="cls-4" d="M91.25,300.56c.17-.13.33-.43.46-.9.37-1.35.56-2.34.56-2.95s-.25-.88-.72-.88c-.21,0-.71.17-1.47.52-.43.13-.6.46-.52.99.09.53-.05,1.46-.43,2.81-.06.25-.09.45-.09.59,0,.28.11.41.34.41.14,0,.5-.1,1.07-.29.45-.13.72-.24.8-.31Z"/>
        <path class="cls-4" d="M105.89,297.4c0-.23-.18-.35-.54-.35-.67,0-2.26-.17-4.77-.51,3.37-8.25,5.82-12.81,7.37-13.68.41-.22.87-.33,1.38-.33.68,0,1.47.21,2.35.64.16.07.32.1.49.1.39,0,.58-.13.58-.41,0-.18-.12-.34-.35-.49-2.38-1.52-4.07-2.28-5.1-2.28s-2.19.96-3.37,2.87c-1.43,2.33-3.39,6.67-5.9,13.03-.1.29-.48.51-1.14.67-.72.14-1.43.28-2.15.43-.49.11-.74.26-.74.47,0,.04.08.25.25.61.12.23.35.37.68.41.25.01.98-.01,2.18-.08-3.27,9.01-5.56,16.55-6.87,22.62-.14.72.31,1.35,1.35,1.88.87.46,1.42.7,1.65.7.17,0,.25-.11.25-.33,0-.15-.02-.36-.07-.65-.05-.28-.06-.48-.06-.62,0-1.64.48-4.38,1.44-8.22,1.2-4.75,2.86-9.89,4.98-15.42,1.88-.08,3.73-.27,5.54-.57.36-.07.54-.23.54-.49Z"/>
        <path class="cls-4" d="M116.72,296.61c-.26,0-.65.07-1.16.22-1.01.37-1.68.62-2,.76-1.18-.95-2.03-1.43-2.56-1.43-.38,0-.88.3-1.49.9-1.27,1.25-2.5,3.28-3.68,6.1-1.07,2.59-1.64,4.62-1.7,6.06-.06,1.24.41,2.27,1.4,3.06.91.72,2.11,1.13,3.56,1.21.73.17,1.33.27,1.8.27,1.19,0,2.28-.47,3.26-1.39,1.84-1.75,3.27-4.21,4.28-7.38.64-2,.97-3.62,1-4.84.03-.75-.2-1.43-.68-2.04-.75-1-1.42-1.5-2.03-1.5ZM116.74,300.74c-.25,2.16-.91,4.34-2,6.54-1.14,2.33-2.35,3.89-3.66,4.67-.68.4-1.32.6-1.91.61-1.48.06-2.21-.97-2.21-3.08,0-.62.08-1.32.26-2.08.23-1.13.65-2.42,1.25-3.85.78-1.83,1.61-3.23,2.51-4.2.12.26.25.39.37.39.06,0,.3-.08.72-.22l3.61-1.29c.25-.06.45-.08.6-.08.4,0,.61.29.61.86,0,.25-.06.83-.17,1.74Z"/>
        <path class="cls-4" d="M135.39,296.72c-.18-.1-.58-.19-1.23-.27-.49-.33-.87-.49-1.15-.49-.31,0-.72.3-1.23.9-2.69,3.17-5.09,6.82-7.2,10.96.34-1.32.97-3.15,1.87-5.49.94-2.41,1.59-3.8,1.93-4.2.33-.37.25-.66-.23-.88-.86-.38-1.42-.57-1.7-.57-.39,0-.78.3-1.17.9-1.27,1.66-2.29,2.88-3.04,3.69-.13.15-.19.29-.19.41,0,.21.13.31.4.31.21,0,.39-.08.51-.24.31-.4,1.04-1.13,2.19-2.19-1.41,3.25-2.73,7.24-3.95,11.96-.18.67,0,1.13.53,1.36,1.09.47,1.7.71,1.84.71.35,0,.79-.73,1.3-2.19,1.6-4.6,4.01-8.75,7.24-12.45.41-.5.72-.74.91-.74.13,0,.18.13.18.39,0,.75-.22,1.75-.65,2.99-.18.5-.09.89.28,1.17.74.55,1.22.82,1.44.82.29,0,.53-.24.7-.74.54-1.62.82-3.33.82-5.12,0-.49-.14-.82-.4-.99Z"/>
        <path class="cls-4" d="M163.43,306.19c-.43.59-1.04,1.28-1.81,2.09,1.42-3.08,2.23-6.26,2.42-9.55.06-1.13-.51-1.78-1.72-1.94-.68-.54-1.26-.82-1.72-.82-.36,0-.7.13-1.03.4-2.49,2.05-5.23,5.19-8.26,9.4.73-2.17,1.1-4.65,1.1-7.43,0-.53-.12-.9-.35-1.15-.21-.19-.62-.41-1.26-.66-.67-.37-1.16-.55-1.49-.55-.31,0-.63.13-.95.38-2.36,1.83-4.91,4.92-7.66,9.26.81-2.29,1.41-4.74,1.8-7.38.02-.12.04-.24.04-.35,0-.37-.16-.62-.48-.75-.39-.13-.78-.25-1.17-.37-.49-.43-.83-.66-1-.66-.23,0-.5.2-.81.57-.86,1.08-1.72,2.01-2.58,2.81-.18.16-.26.35-.26.57,0,.27.12.41.35.41.16,0,.33-.09.54-.27.28-.25.7-.6,1.25-1.08.56-.47.95-.8,1.18-1.01.13,1.5-.27,3.91-1.18,7.23-.81,2.91-1.53,4.96-2.16,6.14-.34.32-.52.55-.52.7,0,.14.13.27.37.39.96.62,1.6.92,1.91.92.26,0,.52-.32.77-.96.96-2.51,2.42-5.2,4.38-8.07,2.03-3.01,3.88-5.12,5.54-6.35.31-.23.57-.34.77-.34.28,0,.42.21.42.63,0,4.19-1.02,8.53-3.05,13.01-.24.5-.35.77-.35.8,0,.16.11.32.35.47.48.3.99.54,1.51.7.36.11.58.15.67.1.08-.04.17-.23.28-.55,1.04-2.86,2.82-5.92,5.33-9.2,2.1-2.72,3.81-4.55,5.12-5.49.35-.26.67-.39.93-.39.39,0,.58.24.58.72.03,1.45-.36,3.52-1.2,6.24-.83,2.71-1.83,5.26-2.99,7.65-.14.29-.21.5-.21.66,0,.26.54.53,1.6.82.52.14.84.17.98.1.05-.01.17-.18.35-.48,2-3.34,3.51-5.68,4.52-7.01.13-.19.21-.35.21-.49,0-.22-.12-.33-.35-.33-.26,0-.49.15-.7.43Z"/>
        <path class="cls-4" d="M171.63,296.97c-.48-.3-.84-.45-1.1-.45-.23,0-.47.12-.71.35-.83.81-1.61,1.66-2.33,2.56-.14.16-.21.3-.21.41,0,.36.26.34.77-.06l1.44-1.19c.36-.3.6-.45.74-.45.19,0,.26.31.21.92-.13,1.43-.68,3.63-1.65,6.58-1.02,3.04-1.95,5.22-2.8,6.51-.17.27-.26.46-.26.53,0,.1.2.25.6.44.64.31,1.15.47,1.52.47s.63-.15.76-.47c.44-1.01,1.12-2.18,2.05-3.48,1.22-1.72,1.87-2.66,1.95-2.8.19-.38.16-.57-.09-.57-.1,0-.21.06-.33.18-.79.95-1.41,1.59-1.86,1.94,1.56-4.29,2.53-7.36,2.91-9.19.06-.32.1-.6.1-.84,0-.53-.18-.88-.53-1.07-.08-.04-.48-.14-1.19-.31Z"/>
        <path class="cls-4" d="M176.91,290.77c0-.21-.12-.39-.37-.55-.93-.59-1.53-.88-1.81-.88-.16,0-.42.18-.77.53-.45.48-1.39,1.26-2.81,2.36-.14-.03-.24-.01-.29.04-.02.05-.02.13.04.21.06.09.14.18.25.26.34.22.74.37,1.21.45.82.15,1.68-.03,2.56-.58,1.34-.83,2-1.45,2-1.84Z"/>
        <path class="cls-4" d="M188.69,298.51c.41-.34.71-.51.91-.51.28,0,.44.3.47.9.12,1.49-.24,3.64-1.1,6.47-.78,2.69-1.69,4.94-2.7,6.73-.2.33-.3.55-.3.64,0,.23.3.44.91.66.55.2.96.31,1.24.31.36,0,.64-.21.86-.64.26-.62.54-1.23.82-1.85,1.49-2.36,2.7-4.16,3.63-5.4.03-.08.05-.16.05-.25,0-.26-.12-.39-.35-.39-.13,0-.26.07-.37.2-.7.81-1.27,1.46-1.72,1.97.36-.97.75-2.33,1.16-4.08.53-2.12.79-3.66.79-4.61.02-.92-.62-1.57-1.91-1.97-.45-.3-.78-.45-.98-.45-.21,0-.55.1-1.03.29-.96.4-2.44,1.68-4.43,3.86-1.99,2.18-3.5,4.15-4.54,5.91,1.58-3.92,2.46-6.63,2.63-8.13.08-.68-.51-1.19-1.77-1.52-.28-.48-.6-.71-.98-.71-.25,0-.49.12-.72.35-1.08,1.12-1.96,2.06-2.63,2.8-.15.14-.23.26-.23.37,0,.15.11.22.33.22.17,0,.32-.06.47-.18.74-.59,1.33-1.07,1.74-1.43.42-.37.64-.56.65-.56.06,0,.08.25.05.74-.12,1.61-.66,3.86-1.61,6.74-.88,2.66-1.77,4.86-2.68,6.59-.17.33-.25.52-.25.57.01.11.17.22.49.35.79.35,1.35.51,1.69.51.49,0,.91-.35,1.27-1.04,2.85-5.63,6.24-10.12,10.14-13.48Z"/>
        <path class="cls-4" d="M209.95,295.93c-.28,0-.41.26-.41.78,0,.65-.13,1.35-.4,2.07-.71,2.04-1.92,4.27-3.61,6.7-1.82,2.64-3.65,4.65-5.5,6.04-.46.37-.91.56-1.33.56-.62,0-.93-.51-.93-1.52,0-.36.04-.77.12-1.25.31-1.78,1.14-3.74,2.49-5.9,1.24-1.97,2.43-3.38,3.56-4.26.53-.41,1.12-.62,1.77-.62.45,0,.91.11,1.37.33.3.13.56.18.79.18.37,0,.56-.12.56-.37,0-.18-.12-.36-.35-.54-1.15-.9-1.77-1.39-1.87-1.46-.63-.41-1.21-.61-1.74-.61-.71,0-1.52.37-2.4,1.11-1.56,1.31-3.07,3.26-4.51,5.84-1.48,2.65-2.26,4.87-2.35,6.66-.06,1.46.64,2.51,2.11,3.15.83.55,1.52.82,2.07.82.6,0,1.29-.35,2.07-1.04,1.92-1.69,4.18-4.5,6.77-8.42-4.26,16.52-9.6,24.78-15.98,24.78-2,0-4.27-.95-6.8-2.85-.2-.15-.41-.22-.63-.22-.42,0-.63.2-.63.59,0,.26.15.51.45.75,3.19,2.66,6.16,4,8.92,4,7.62.01,13.81-10.86,18.57-32.61.2-.89.04-1.5-.47-1.85-.85-.57-1.43-.86-1.72-.86Z"/>
        <path class="cls-4" d="M249.63,290.62c.9.2,1.58.15,2.05-.16.57-.39.87-.59.91-.62.19-.18.28-.43.28-.74,0-.27-.06-.7-.18-1.29-.09-.44-.29-.66-.6-.66-.22,0-.41.11-.58.33-.4.61-.97.85-1.67.7-5.52-1.1-8.57-1.73-9.2-1.89.13-.31.19-.56.19-.73,0-.25-.11-.37-.33-.37-.31,0-.87.26-1.68.78-3.29-.56-5.76-.84-7.41-.84-2.23,0-3.58.63-4.03,1.89-.31.85-.46,1.73-.46,2.64,0,1.29.33,2.87.98,4.76.11.33.31.49.6.49.42,0,.55-.27.4-.8-.34-1.19-.52-2.18-.52-2.98,0-1.79.86-2.8,2.57-3.01.72-.08,1.45-.13,2.16-.13,1.07,0,2.72.18,4.94.52-1.06,3.74-1.94,6.81-2.65,9.21-.28.06-.53.1-.76.16-1.2.26-1.8.65-1.8,1.17,0,.22.12.57.35,1.07.39.73.63,1.22.72,1.48-.89,2.58-2.14,5.2-3.77,7.85-2.1.08-3.44.2-4.05.36-.67.18-1,.53-1,1.05,0,.15.15.87.44,2.15.08.35.25.54.51.54.33,0,1.14-.5,2.45-1.5,1.94-.12,3.76-.19,5.45-.19,4.14,0,7.88.4,11.22,1.19.83.2,1.29.29,1.35.31.25.01.53-.09.83-.33.31-.23.64-.46.98-.69.36-.29.5-.57.42-.84-.26-.98-.48-1.77-.63-2.35-.11-.33-.37-.48-.8-.45-.21.01-.37.25-.48.7-.1.46-.39.67-.87.63-5.91-.47-10.15-.7-12.71-.7-.63,0-1.23.01-1.77.04.91-.56,1.58-1.11,2-1.65.4-.54.88-1.5,1.43-2.89l1.86-5.1c.78-.13,2.88-.18,6.33-.18.62,0,1.04.2,1.26.61.19.32.93.39,2.23.18,1.23-.18,1.84-.49,1.84-.97,0-.08,0-.17-.02-.29-.21-.85-.35-1.31-.4-1.39-.3-.52-.87-.77-1.75-.75-4.14.19-7.06.34-8.77.47.49-1.91,1.27-4.76,2.33-8.52,3.68.53,6.95,1.12,9.82,1.76Z"/>
        <path class="cls-4" d="M267.09,306.95c-.68.73-1.22,1.26-1.63,1.6,1.96-10.2,5.07-18.37,9.34-24.5,1.17-1.67,2.22-2.5,3.19-2.5.36,0,.9.16,1.63.47.16.06.31.1.45.1.37,0,.55-.13.55-.38,0-.15-.09-.29-.28-.41-.79-.56-1.57-1.12-2.35-1.68-.68-.45-1.24-.68-1.68-.68-.4,0-.82.19-1.26.55-1.18.96-2.54,2.83-4.09,5.61-1.99,3.56-3.79,7.86-5.4,12.89-.18.6-.45,1.23-.77,1.88-.57,1.19-1.87,2.95-3.91,5.29-1.99,2.25-3.84,4.12-5.56,5.61-.75.64-1.37.97-1.88.97-.39,0-.55-.26-.47-.78.36-2.18,1.55-4.64,3.58-7.37,1.76-2.36,3.36-4.03,4.82-4.98.68-.44,1.57-.45,2.66-.04.12.04.24.06.35.06.33,0,.48-.11.48-.33,0-.13-.07-.24-.21-.35-1.56-1.27-2.63-1.92-3.24-1.94-.57-.01-1.23.28-1.96.88-2.25,1.83-4.24,4.08-5.99,6.77-1.75,2.69-2.78,5.04-3.11,7.08-.03.15-.05.29-.05.41,0,.72.5,1.36,1.51,1.9.58.4,1,.6,1.29.6.32,0,.82-.2,1.48-.6.87-.5,2.26-1.71,4.18-3.64,1.92-1.92,3.63-3.84,5.16-5.77-.44,1.55-.99,3.9-1.65,7.05-.08.32-.12.59-.12.82,0,.44.16.79.47,1.05.1.08.52.36,1.3.82.2.12.37.18.51.18.28,0,.52-.25.7-.76.49-2.1,1.47-4.06,2.96-5.88.34-.42.3-.64-.11-.64-.19,0-.48.21-.89.64Z"/>
        <path class="cls-4" d="M288,297.24c-.62-.29-1.04-.43-1.25-.43s-.47.08-.75.24c-.44.25-1,1.06-1.7,2.46-.42.83-1.63,2.62-3.63,5.36-2.26,3.12-4,5.23-5.19,6.35-.56.51-.96.76-1.21.76-.29,0-.42-.3-.42-.88.02-1.79.49-4.11,1.44-6.94.87-2.62,1.69-4.45,2.47-5.49.34-.45.51-.68.51-.68,0-.12-.1-.25-.33-.37-.8-.43-1.41-.66-1.84-.66-.31,0-.61.15-.88.45-.53.59-1.03,1.41-1.52,2.47-.15.34-.65,1.06-1.48,2.13-.17.23-.2.39-.07.47.11.07.26.03.47-.12.53-.43.92-.75,1.18-.96-1.22,2.58-2.03,5.82-2.42,9.73-.03.18-.05.34-.05.49,0,.82.54,1.32,1.61,1.48.59.31,1.1.47,1.53.47.53,0,1.02-.22,1.46-.67,2.03-2.03,4.55-5.19,7.55-9.49-.92,2.2-1.7,4.79-2.35,7.77-.16.76,0,1.29.49,1.59.91.53,1.51.8,1.82.8s.56-.34.75-1.02c.31-1.08.96-2.62,1.95-4.61.05-.1.06-.19.06-.27,0-.26-.11-.39-.35-.39-.17,0-.29.1-.37.29-.63,1.04-1.15,1.89-1.59,2.56,1.03-4.54,2.58-8.51,4.63-11.88.05-.09.13-.15.24-.23.1-.07.16-.13.16-.17,0-.14-.31-.34-.93-.64Z"/>
        <path class="cls-4" d="M298.76,302.46c0,.28.43.62,1.3,1.04.59.29,1.03.16,1.31-.37.67-1.3,1-3,1-5.12,0-.77-.61-1.15-1.84-1.15-.62,0-1.25.1-1.88.31-1.18-.6-1.97-.9-2.38-.9s-.9.29-1.49.86c-1.27,1.26-2.49,3.28-3.65,6.06-1.09,2.57-1.66,4.57-1.72,6.02-.06,1.26.37,2.28,1.28,3.06.86.72,1.99,1.13,3.42,1.21.72.17,1.32.27,1.81.27.83,0,1.4-.18,1.72-.51,1.33-1.36,2.42-2.92,3.24-4.69.08-.17.12-.3.12-.41,0-.22-.1-.33-.3-.33s-.43.14-.67.39c-2.54,2.88-4.48,4.33-5.8,4.36-1.5.04-2.26-.99-2.26-3.08,0-.62.09-1.32.25-2.08.22-1.07.65-2.34,1.31-3.83.79-1.8,1.62-3.21,2.49-4.22.79-.9,1.46-1.35,2-1.35.1,0,.22.01.37.05.15.04.27.06.35.06.67,0,1.02.3,1.05.92.04.73-.2,1.74-.72,3.06-.21.13-.3.26-.3.39Z"/>
        <path class="cls-4" d="M317.94,297.14c-.23,0-.45.31-.65.92-.13.35-.4.96-.81,1.84-.58,1.19-1.88,2.95-3.92,5.29-1.99,2.25-3.85,4.12-5.59,5.61-.73.64-1.36.97-1.88.97-.31,0-.47-.18-.47-.52,0-.08,0-.17.02-.26.42-2.18,1.65-4.64,3.7-7.37,1.77-2.38,3.38-4.04,4.84-4.98.67-.44,1.56-.45,2.66-.04.11.04.23.06.35.06.32,0,.49-.11.49-.33,0-.13-.07-.24-.21-.35-1.57-1.27-2.64-1.92-3.19-1.94-.57-.01-1.22.28-1.95.88-2.25,1.84-4.24,4.11-5.98,6.79-1.74,2.68-2.75,5.03-3.03,7.06-.03.19-.05.36-.05.51,0,.77.41,1.37,1.24,1.8.57.4,1,.6,1.28.6.34,0,.83-.2,1.49-.6.91-.56,2.37-1.85,4.4-3.89,2.33-2.33,4.16-4.46,5.52-6.39-.98,2.3-1.79,5.18-2.44,8.65-.08.45-.08.75,0,.9.06.16.3.36.72.62.71.43,1.2.65,1.46.65.28,0,.49-.27.63-.82.49-1.94,1.45-3.86,2.91-5.75.12-.17.19-.31.19-.43,0-.2-.12-.31-.35-.31-.24,0-.48.13-.7.37-.1.07-.33.3-.71.7-.38.39-.69.68-.92.88.54-2.36,1.53-5.29,2.96-8.77.17-.41.24-.7.21-.86-.02-.2-.22-.4-.58-.64-.85-.56-1.4-.84-1.63-.84Z"/>
        <path class="cls-4" d="M329.78,308.95c-2.11,1.79-3.37,2.68-3.79,2.68-.26,0-.4-.23-.4-.7,0-.13,0-.29.02-.47.4-3.32,1.53-7.38,3.4-12.17,3.1-.2,4.82-.33,5.14-.37.4-.07.6-.25.6-.55,0-.44-.26-.64-.79-.59-1.54.13-2.76.16-3.68.08-.36-.01-.56-.07-.6-.17-.03-.06.02-.23.13-.53,1.32-3.38,2.35-5.59,3.1-6.59.83-1.13,1.55-1.7,2.14-1.7.06,0,.16,0,.29.03.13.02.23.03.29.03.29,0,.44-.08.44-.26,0-.26-.22-.49-.65-.69-1.13-.55-1.99-.82-2.58-.82-.62,0-1.2.38-1.75,1.15-.95,1.33-2.25,4.26-3.91,8.78-.48.27-.98.47-1.49.62-.84.24-1.41.38-1.72.45-.31.07-.47.26-.47.57,0,.29.15.45.44.49.67.1,1.41.19,2.23.29-1.68,5.15-2.8,9.49-3.38,13-.03.13-.04.24-.04.33,0,.61.44,1.03,1.32,1.23.71.48,1.24.72,1.58.72s.76-.22,1.28-.64c1.21-1.03,2.44-2.27,3.7-3.73.18-.23.25-.41.2-.58-.05-.15-.17-.23-.37-.23-.23,0-.47.11-.72.33Z"/>
        <path class="cls-4" d="M338.35,296.97c-.48-.3-.84-.45-1.09-.45-.23,0-.47.12-.71.35-.83.81-1.61,1.66-2.33,2.56-.14.16-.21.3-.21.41,0,.36.26.34.77-.06l1.44-1.19c.36-.3.61-.45.74-.45.19,0,.26.31.21.92-.13,1.43-.68,3.63-1.65,6.58-1.03,3.04-1.95,5.22-2.8,6.51-.17.27-.25.46-.25.53,0,.1.2.25.6.44.63.31,1.14.47,1.52.47s.63-.15.76-.47c.44-1.01,1.12-2.18,2.05-3.48,1.22-1.72,1.87-2.66,1.95-2.8.19-.38.16-.57-.1-.57-.1,0-.21.06-.32.18-.79.95-1.41,1.59-1.86,1.94,1.56-4.29,2.54-7.36,2.91-9.19.07-.32.1-.6.1-.84,0-.53-.18-.88-.53-1.07-.08-.04-.48-.14-1.19-.31Z"/>
        <path class="cls-4" d="M343.63,290.77c0-.21-.12-.39-.38-.55-.93-.59-1.53-.88-1.81-.88-.16,0-.41.18-.77.53-.45.48-1.39,1.26-2.81,2.36-.14-.03-.24-.01-.29.04-.02.05-.01.13.04.21.05.09.13.18.25.26.34.22.74.37,1.21.45.82.15,1.68-.03,2.56-.58,1.34-.83,2-1.45,2-1.84Z"/>
        <path class="cls-4" d="M354.72,296.61c-.26,0-.65.07-1.16.22-1.01.37-1.68.62-2,.76-1.19-.95-2.04-1.43-2.57-1.43-.38,0-.88.3-1.49.9-1.27,1.25-2.5,3.28-3.68,6.1-1.07,2.59-1.64,4.62-1.7,6.06-.06,1.24.4,2.27,1.4,3.06.91.72,2.1,1.13,3.56,1.21.73.17,1.33.27,1.8.27,1.19,0,2.28-.47,3.26-1.39,1.84-1.75,3.27-4.21,4.28-7.38.64-2,.97-3.62,1-4.84.03-.75-.2-1.43-.68-2.04-.75-1-1.42-1.5-2.03-1.5ZM354.74,300.74c-.25,2.16-.91,4.34-2,6.54-1.14,2.33-2.35,3.89-3.66,4.67-.68.4-1.32.6-1.91.61-1.48.06-2.21-.97-2.21-3.08,0-.62.08-1.32.25-2.08.23-1.13.65-2.42,1.25-3.85.78-1.83,1.61-3.23,2.51-4.2.12.26.25.39.37.39.06,0,.3-.08.72-.22l3.61-1.29c.25-.06.45-.08.6-.08.4,0,.61.29.61.86,0,.25-.05.83-.17,1.74Z"/>
        <path class="cls-4" d="M376.07,305.39c-.7.81-1.27,1.46-1.72,1.97.36-.97.75-2.33,1.16-4.08.53-2.12.8-3.66.8-4.61.02-.92-.62-1.57-1.91-1.97-.45-.3-.78-.45-.98-.45s-.55.1-1.02.29c-.96.4-2.44,1.68-4.43,3.86-1.99,2.18-3.5,4.15-4.54,5.91,1.58-3.92,2.45-6.63,2.63-8.13.08-.68-.51-1.19-1.77-1.52-.28-.48-.6-.71-.98-.71-.25,0-.49.12-.72.35-1.08,1.12-1.96,2.06-2.63,2.8-.15.14-.23.26-.23.37,0,.15.11.22.33.22.17,0,.33-.06.47-.18.74-.59,1.33-1.07,1.74-1.43.42-.37.64-.56.65-.56.06,0,.08.25.05.74-.12,1.61-.66,3.86-1.6,6.74-.88,2.66-1.77,4.86-2.68,6.59-.17.33-.25.52-.25.57.02.11.17.22.49.35.79.35,1.35.51,1.69.51.48,0,.9-.35,1.26-1.04,2.85-5.63,6.24-10.12,10.15-13.48.41-.34.71-.51.91-.51.28,0,.44.3.47.9.12,1.49-.24,3.64-1.1,6.47-.79,2.69-1.69,4.94-2.7,6.73-.2.33-.3.55-.3.64,0,.23.3.44.91.66.55.2.96.31,1.24.31.36,0,.64-.21.86-.64.26-.62.54-1.23.82-1.85,1.49-2.36,2.7-4.16,3.63-5.4.03-.08.05-.16.05-.25,0-.26-.12-.39-.35-.39-.13,0-.25.07-.37.2Z"/>
        <path class="cls-4" d="M419.57,288.1c.55-.14.84-.4.84-.79,0-.1-.02-.21-.05-.33-.29-1.04-.46-1.6-.51-1.67-.26-.49-.75-.72-1.45-.69-1.29.05-2.1.28-2.44.67-.39.42-.77.66-1.14.72-2.1.27-3.35.41-3.75.41-.85-.69-1.46-1.03-1.81-1.03-.23,0-.59.45-1.1,1.33-4.36.34-8.69,1.02-12.97,2.05-3.29.79-4.85,2.02-4.68,3.68.11,1.13.3,2,.56,2.6.37.86,1.17,2.06,2.4,3.61.2.26.42.38.68.38.35,0,.53-.17.53-.51,0-.15-.06-.31-.17-.49-1.02-1.66-1.53-2.87-1.53-3.65,0-.72.47-1.45,1.4-2.19.82-.64,2.56-1.25,5.21-1.83,2.39-.49,4.78-.82,7.17-.99-.15.45-1.11,3-2.88,7.64-1.57,4.11-2.56,6.87-2.98,8.26-.17-.01-.39-.06-.66-.11-.28-.06-.46-.1-.55-.1-.34,0-.65.31-.93.92-.73,1.66-1.1,3.48-1.1,5.49,0,1.11-.02,1.52-.05,1.25.03.27.22.46.58.55.99.3,1.65.45,1.98.45.52,0,.91-.51,1.17-1.54.77-3.17,1.99-7.12,3.63-11.84,1.78-5.18,3.29-8.92,4.51-11.23,2.9-.22,5.73-.5,8.48-.84,1.03-.13,1.57-.21,1.61-.22Z"/>
        <path class="cls-4" d="M428.65,302.83c.54-1.62.82-3.33.82-5.12,0-.49-.13-.82-.4-.99-.18-.1-.58-.19-1.23-.27-.49-.33-.87-.49-1.14-.49-.31,0-.72.3-1.23.9-2.69,3.17-5.09,6.82-7.2,10.96.34-1.32.97-3.15,1.87-5.49.95-2.41,1.59-3.8,1.93-4.2.33-.37.25-.66-.23-.88-.86-.38-1.42-.57-1.7-.57-.39,0-.78.3-1.17.9-1.27,1.66-2.29,2.88-3.04,3.69-.13.15-.19.29-.19.41,0,.21.13.31.4.31.21,0,.39-.08.51-.24.31-.4,1.04-1.13,2.19-2.19-1.41,3.25-2.73,7.24-3.96,11.96-.17.67,0,1.13.53,1.36,1.09.47,1.7.71,1.84.71.35,0,.79-.73,1.31-2.19,1.6-4.6,4-8.75,7.24-12.45.41-.5.72-.74.91-.74.13,0,.18.13.18.39,0,.75-.21,1.75-.65,2.99-.18.5-.09.89.29,1.17.74.55,1.22.82,1.44.82.29,0,.53-.24.7-.74Z"/>
        <path class="cls-4" d="M445.57,297.98c-.85-.56-1.4-.84-1.63-.84s-.45.31-.65.92c-.13.35-.4.96-.81,1.84-.58,1.19-1.88,2.95-3.92,5.29-1.99,2.25-3.85,4.12-5.58,5.61-.73.64-1.36.97-1.88.97-.31,0-.47-.18-.47-.52,0-.08,0-.17.02-.26.42-2.18,1.65-4.64,3.7-7.37,1.77-2.38,3.38-4.04,4.84-4.98.67-.44,1.56-.45,2.66-.04.11.04.23.06.35.06.33,0,.49-.11.49-.33,0-.13-.07-.24-.21-.35-1.57-1.27-2.64-1.92-3.19-1.94-.57-.01-1.22.28-1.95.88-2.25,1.84-4.24,4.11-5.98,6.79-1.74,2.68-2.75,5.03-3.03,7.06-.03.19-.05.36-.05.51,0,.77.41,1.37,1.24,1.8.57.4,1,.6,1.28.6.34,0,.83-.2,1.48-.6.91-.56,2.37-1.85,4.4-3.89,2.33-2.33,4.17-4.46,5.52-6.39-.98,2.3-1.79,5.18-2.44,8.65-.08.45-.08.75,0,.9.06.16.3.36.72.62.71.43,1.2.65,1.46.65.28,0,.49-.27.63-.82.49-1.94,1.45-3.86,2.91-5.75.13-.17.19-.31.19-.43,0-.2-.12-.31-.35-.31-.25,0-.48.13-.7.37-.1.07-.33.3-.71.7-.38.39-.69.68-.92.88.54-2.36,1.52-5.29,2.95-8.77.17-.41.24-.7.21-.86-.02-.2-.22-.4-.58-.64Z"/>
        <path class="cls-4" d="M465.99,305.58c0-.26-.12-.39-.35-.39-.13,0-.26.07-.37.2-.7.81-1.27,1.46-1.73,1.97.36-.97.75-2.33,1.16-4.08.53-2.12.79-3.66.79-4.61.02-.92-.62-1.57-1.91-1.97-.45-.3-.78-.45-.98-.45s-.55.1-1.02.29c-.96.4-2.44,1.68-4.43,3.86-1.99,2.18-3.5,4.15-4.54,5.91,1.58-3.92,2.46-6.63,2.63-8.13.08-.68-.51-1.19-1.77-1.52-.28-.48-.6-.71-.97-.71-.25,0-.49.12-.72.35-1.08,1.12-1.96,2.06-2.63,2.8-.15.14-.23.26-.23.37,0,.15.11.22.33.22.17,0,.33-.06.47-.18.74-.59,1.33-1.07,1.74-1.43.42-.37.63-.56.65-.56.06,0,.08.25.05.74-.12,1.61-.66,3.86-1.61,6.74-.88,2.66-1.77,4.86-2.68,6.59-.17.33-.25.52-.25.57.01.11.17.22.49.35.79.35,1.35.51,1.69.51.48,0,.9-.35,1.26-1.04,2.85-5.63,6.24-10.12,10.15-13.48.41-.34.71-.51.91-.51.28,0,.44.3.47.9.12,1.49-.24,3.64-1.1,6.47-.79,2.69-1.69,4.94-2.7,6.73-.2.33-.3.55-.3.64,0,.23.3.44.91.66.55.2.96.31,1.24.31.36,0,.64-.21.86-.64.26-.62.54-1.23.82-1.85,1.49-2.36,2.7-4.16,3.63-5.4.03-.08.05-.16.05-.25Z"/>
        <path class="cls-4" d="M478.31,300.56c.17-.13.33-.43.46-.9.37-1.35.56-2.34.56-2.95s-.25-.88-.72-.88c-.21,0-.71.17-1.47.52-.43.13-.6.46-.52.99.09.53-.06,1.46-.43,2.81-.06.25-.09.45-.09.59,0,.28.11.41.34.41.14,0,.5-.1,1.07-.29.45-.13.71-.24.79-.31Z"/>
        <path class="cls-4" d="M475.46,296.54c-3.46.67-5.25,1.86-5.37,3.56-.06.71.38,2.12,1.35,4.24.98,2.18,1.46,3.68,1.46,4.55,0,.48-.1.88-.3,1.21-.34.64-.91,1.05-1.72,1.21-2.15.27-3.78.44-4.89.51-.81.07-1.24.29-1.3.66.08.34.3.54.67.59,1.34.18,2.46.33,3.38.45.51.06.99.08,1.44.06.7-.05,1.23-.24,1.59-.57.23-.22.48-.61.74-1.19,2.11-.6,3.15-1.72,3.1-3.36-.02-.79-.31-1.94-.88-3.46-.78-2.1-1.25-3.43-1.4-3.98-.16-.55-.23-1.01-.23-1.39,0-.94.83-1.73,2.51-2.38.24-.09.37-.22.37-.39,0-.29-.17-.4-.52-.33Z"/>
        <path class="cls-4" d="M492.95,297.4c0-.23-.18-.35-.54-.35-.67,0-2.26-.17-4.77-.51,3.37-8.25,5.83-12.81,7.38-13.68.4-.22.87-.33,1.37-.33.68,0,1.47.21,2.35.64.16.07.32.1.49.1.39,0,.58-.13.58-.41,0-.18-.12-.34-.35-.49-2.38-1.52-4.08-2.28-5.1-2.28s-2.19.96-3.37,2.87c-1.43,2.33-3.39,6.67-5.9,13.03-.1.29-.49.51-1.13.67-.72.14-1.43.28-2.15.43-.49.11-.74.26-.74.47,0,.04.08.25.25.61.12.23.35.37.67.41.25.01.98-.01,2.19-.08-3.27,9.01-5.56,16.55-6.87,22.62-.14.72.31,1.35,1.35,1.88.87.46,1.42.7,1.65.7.16,0,.25-.11.25-.33,0-.15-.02-.36-.07-.65-.05-.28-.06-.48-.06-.62,0-1.64.48-4.38,1.44-8.22,1.2-4.75,2.86-9.89,4.98-15.42,1.88-.08,3.73-.27,5.54-.57.36-.07.54-.23.54-.49Z"/>
        <path class="cls-4" d="M503.77,296.61c-.26,0-.65.07-1.16.22-1.01.37-1.68.62-2,.76-1.18-.95-2.03-1.43-2.57-1.43-.38,0-.88.3-1.49.9-1.27,1.25-2.5,3.28-3.68,6.1-1.07,2.59-1.64,4.62-1.7,6.06-.06,1.24.41,2.27,1.4,3.06.91.72,2.11,1.13,3.56,1.21.73.17,1.33.27,1.8.27,1.19,0,2.28-.47,3.26-1.39,1.84-1.75,3.27-4.21,4.28-7.38.63-2,.97-3.62,1-4.84.03-.75-.2-1.43-.67-2.04-.75-1-1.42-1.5-2.03-1.5ZM503.8,300.74c-.25,2.16-.91,4.34-2,6.54-1.14,2.33-2.35,3.89-3.66,4.67-.68.4-1.32.6-1.91.61-1.48.06-2.21-.97-2.21-3.08,0-.62.08-1.32.25-2.08.23-1.13.65-2.42,1.26-3.85.78-1.83,1.61-3.23,2.51-4.2.13.26.25.39.37.39.06,0,.3-.08.72-.22l3.61-1.29c.25-.06.45-.08.6-.08.41,0,.61.29.61.86,0,.25-.05.83-.17,1.74Z"/>
        <path class="cls-4" d="M522.45,296.72c-.17-.1-.58-.19-1.23-.27-.48-.33-.87-.49-1.14-.49-.31,0-.72.3-1.23.9-2.69,3.17-5.09,6.82-7.2,10.96.34-1.32.97-3.15,1.87-5.49.94-2.41,1.59-3.8,1.93-4.2.33-.37.24-.66-.23-.88-.86-.38-1.42-.57-1.7-.57-.39,0-.78.3-1.17.9-1.27,1.66-2.29,2.88-3.04,3.69-.13.15-.19.29-.19.41,0,.21.13.31.4.31.21,0,.39-.08.51-.24.31-.4,1.04-1.13,2.19-2.19-1.41,3.25-2.73,7.24-3.96,11.96-.17.67,0,1.13.53,1.36,1.09.47,1.7.71,1.84.71.35,0,.78-.73,1.3-2.19,1.6-4.6,4-8.75,7.24-12.45.41-.5.72-.74.91-.74.13,0,.18.13.18.39,0,.75-.22,1.75-.65,2.99-.18.5-.09.89.29,1.17.74.55,1.22.82,1.44.82.29,0,.53-.24.7-.74.54-1.62.82-3.33.82-5.12,0-.49-.14-.82-.4-.99Z"/>
        <path class="cls-4" d="M550.49,306.19c-.43.59-1.04,1.28-1.81,2.09,1.42-3.08,2.23-6.26,2.41-9.55.06-1.13-.51-1.78-1.72-1.94-.68-.54-1.26-.82-1.72-.82-.36,0-.7.13-1.03.4-2.49,2.05-5.23,5.19-8.26,9.4.73-2.17,1.1-4.65,1.1-7.43,0-.53-.12-.9-.35-1.15-.21-.19-.62-.41-1.26-.66-.67-.37-1.16-.55-1.48-.55s-.63.13-.96.38c-2.36,1.83-4.91,4.92-7.66,9.26.81-2.29,1.41-4.74,1.8-7.38.02-.12.04-.24.04-.35,0-.37-.16-.62-.48-.75-.39-.13-.78-.25-1.17-.37-.49-.43-.83-.66-1-.66-.23,0-.5.2-.81.57-.86,1.08-1.72,2.01-2.58,2.81-.17.16-.26.35-.26.57,0,.27.12.41.35.41.16,0,.33-.09.54-.27.28-.25.7-.6,1.26-1.08.56-.47.95-.8,1.18-1.01.13,1.5-.27,3.91-1.18,7.23-.81,2.91-1.53,4.96-2.16,6.14-.34.32-.52.55-.52.7,0,.14.13.27.38.39.96.62,1.6.92,1.91.92.26,0,.52-.32.77-.96.96-2.51,2.42-5.2,4.38-8.07,2.04-3.01,3.88-5.12,5.54-6.35.31-.23.56-.34.77-.34.28,0,.41.21.41.63,0,4.19-1.02,8.53-3.04,13.01-.24.5-.35.77-.35.8,0,.16.11.32.35.47.48.3.99.54,1.51.7.36.11.58.15.68.1.08-.04.17-.23.28-.55,1.04-2.86,2.82-5.92,5.33-9.2,2.09-2.72,3.8-4.55,5.12-5.49.35-.26.67-.39.93-.39.39,0,.58.24.58.72.03,1.45-.37,3.52-1.2,6.24-.83,2.71-1.83,5.26-2.99,7.65-.14.29-.21.5-.21.66,0,.26.54.53,1.6.82.52.14.84.17.98.1.05-.01.16-.18.35-.48,2-3.34,3.51-5.68,4.52-7.01.13-.19.21-.35.21-.49,0-.22-.12-.33-.35-.33-.26,0-.49.15-.7.43Z"/>
        <path class="cls-4" d="M558.68,296.97c-.48-.3-.84-.45-1.09-.45-.23,0-.47.12-.72.35-.83.81-1.61,1.66-2.33,2.56-.14.16-.21.3-.21.41,0,.36.26.34.77-.06l1.45-1.19c.36-.3.6-.45.74-.45.19,0,.26.31.22.92-.13,1.43-.68,3.63-1.65,6.58-1.02,3.04-1.95,5.22-2.8,6.51-.17.27-.25.46-.25.53,0,.1.2.25.6.44.64.31,1.14.47,1.52.47s.63-.15.76-.47c.44-1.01,1.12-2.18,2.05-3.48,1.22-1.72,1.87-2.66,1.95-2.8.19-.38.16-.57-.1-.57-.1,0-.21.06-.33.18-.79.95-1.41,1.59-1.86,1.94,1.57-4.29,2.53-7.36,2.91-9.19.06-.32.1-.6.1-.84,0-.53-.18-.88-.53-1.07-.08-.04-.48-.14-1.19-.31Z"/>
        <path class="cls-4" d="M563.97,290.77c0-.21-.12-.39-.37-.55-.93-.59-1.53-.88-1.81-.88-.16,0-.41.18-.77.53-.45.48-1.39,1.26-2.81,2.36-.14-.03-.24-.01-.29.04-.02.05-.01.13.04.21.06.09.13.18.24.26.34.22.74.37,1.21.45.82.15,1.68-.03,2.56-.58,1.34-.83,2-1.45,2-1.84Z"/>
        <path class="cls-4" d="M575.75,298.51c.41-.34.71-.51.91-.51.28,0,.44.3.47.9.12,1.49-.24,3.64-1.1,6.47-.78,2.69-1.69,4.94-2.7,6.73-.2.33-.3.55-.3.64,0,.23.3.44.91.66.55.2.96.31,1.24.31.36,0,.64-.21.86-.64.26-.62.54-1.23.82-1.85,1.48-2.36,2.7-4.16,3.63-5.4.03-.08.05-.16.05-.25,0-.26-.12-.39-.35-.39-.13,0-.26.07-.37.2-.7.81-1.27,1.46-1.72,1.97.36-.97.75-2.33,1.16-4.08.53-2.12.79-3.66.79-4.61.02-.92-.62-1.57-1.91-1.97-.45-.3-.78-.45-.98-.45s-.55.1-1.02.29c-.96.4-2.44,1.68-4.43,3.86-1.99,2.18-3.5,4.15-4.54,5.91,1.58-3.92,2.45-6.63,2.63-8.13.08-.68-.51-1.19-1.77-1.52-.28-.48-.6-.71-.98-.71-.25,0-.48.12-.72.35-1.08,1.12-1.96,2.06-2.63,2.8-.15.14-.23.26-.23.37,0,.15.11.22.33.22.17,0,.32-.06.47-.18.74-.59,1.33-1.07,1.74-1.43.42-.37.64-.56.65-.56.06,0,.08.25.05.74-.12,1.61-.66,3.86-1.6,6.74-.88,2.66-1.77,4.86-2.68,6.59-.17.33-.25.52-.25.57.02.11.18.22.49.35.79.35,1.35.51,1.69.51.48,0,.9-.35,1.26-1.04,2.85-5.63,6.24-10.12,10.15-13.48Z"/>
        <path class="cls-4" d="M597,295.93c-.28,0-.41.26-.41.78,0,.65-.13,1.35-.4,2.07-.71,2.04-1.92,4.27-3.61,6.7-1.82,2.64-3.65,4.65-5.5,6.04-.46.37-.91.56-1.33.56-.62,0-.93-.51-.93-1.52,0-.36.04-.77.12-1.25.31-1.78,1.14-3.74,2.49-5.9,1.24-1.97,2.43-3.38,3.56-4.26.53-.41,1.12-.62,1.77-.62.45,0,.91.11,1.37.33.29.13.56.18.79.18.37,0,.57-.12.57-.37,0-.18-.12-.36-.35-.54-1.15-.9-1.77-1.39-1.87-1.46-.64-.41-1.22-.61-1.74-.61-.71,0-1.52.37-2.4,1.11-1.57,1.31-3.07,3.26-4.51,5.84-1.48,2.65-2.27,4.87-2.35,6.66-.06,1.46.64,2.51,2.11,3.15.83.55,1.52.82,2.08.82.6,0,1.29-.35,2.07-1.04,1.92-1.69,4.18-4.5,6.77-8.42-4.26,16.52-9.6,24.78-15.99,24.78-2,0-4.27-.95-6.8-2.85-.2-.15-.41-.22-.63-.22-.42,0-.63.2-.63.59,0,.26.15.51.44.75,3.19,2.66,6.17,4,8.92,4,7.62.01,13.81-10.86,18.58-32.61.2-.89.04-1.5-.47-1.85-.85-.57-1.43-.86-1.73-.86Z"/>
        <path class="cls-4" d="M628.68,287.57c-1.76-1.03-2.96-1.54-3.56-1.54-.21,0-.38.06-.49.18-1.74-.46-2.89-.59-3.45-.36-1.21.45-2.58,1.43-4.1,2.94-1.6,1.59-2.8,3.2-3.61,4.86-.55,1.12-.83,2-.83,2.64,0,.68.29,1.29.88,1.82.5.44,1.41,1.01,2.75,1.7.12.05.28.08.46.08.47,0,.7-.13.7-.38,0-.13-.08-.26-.25-.41-.36-.31-.72-.63-1.07-.94-.38-.42-.58-.89-.58-1.39,0-.26.05-.53.14-.82.7-2.2,1.9-4.16,3.61-5.88,1.53-1.54,2.91-2.39,4.11-2.54.29-.04.57-.06.82-.06,1.57,0,2.33.68,2.28,2.03-.17,4.17-1.45,8.88-3.81,14.14-2.49,5.45-4.76,8.14-6.83,8.09-.95-.01-2.09-.32-3.42-.92-.12-.06-.25-.09-.37-.09-.5,0-.75.24-.75.72,0,.19.09.35.25.47,2.2,1.46,4.08,2.19,5.61,2.18,2.54-.03,5.17-2.91,7.89-8.67,2.31-4.87,3.74-9.3,4.28-13.27.34-2.59.12-4.12-.68-4.57Z"/>
        <path class="cls-4" d="M646.66,305.39c-.7.81-1.27,1.46-1.72,1.97.36-.97.75-2.33,1.16-4.08.53-2.12.79-3.66.79-4.61.02-.92-.62-1.57-1.91-1.97-.45-.3-.78-.45-.98-.45s-.55.1-1.02.29c-.96.4-2.44,1.68-4.43,3.86-1.99,2.18-3.5,4.15-4.54,5.91,1.58-3.92,2.45-6.63,2.63-8.13.08-.68-.51-1.19-1.77-1.52-.28-.48-.6-.71-.98-.71-.25,0-.49.12-.72.35-1.08,1.12-1.96,2.06-2.63,2.8-.15.14-.23.26-.23.37,0,.15.11.22.33.22.17,0,.32-.06.47-.18.74-.59,1.33-1.07,1.74-1.43.42-.37.64-.56.65-.56.06,0,.08.25.05.74-.12,1.61-.66,3.86-1.6,6.74-.88,2.66-1.77,4.86-2.68,6.59-.16.33-.25.52-.25.57.02.11.17.22.49.35.79.35,1.35.51,1.69.51.48,0,.91-.35,1.26-1.04,2.85-5.63,6.24-10.12,10.14-13.48.41-.34.71-.51.91-.51.28,0,.44.3.47.9.12,1.49-.24,3.64-1.1,6.47-.78,2.69-1.69,4.94-2.7,6.73-.2.33-.3.55-.3.64,0,.23.3.44.91.66.55.2.96.31,1.24.31.36,0,.64-.21.85-.64.26-.62.54-1.23.82-1.85,1.49-2.36,2.7-4.16,3.63-5.4.03-.08.05-.16.05-.25,0-.26-.12-.39-.35-.39-.13,0-.26.07-.37.2Z"/>
        <path class="cls-4" d="M665.16,306.95c-.68.73-1.22,1.26-1.63,1.6,1.96-10.2,5.07-18.37,9.34-24.5,1.17-1.67,2.22-2.5,3.19-2.5.36,0,.9.16,1.63.47.16.06.31.1.45.1.37,0,.56-.13.56-.38,0-.15-.09-.29-.28-.41-.79-.56-1.57-1.12-2.35-1.68-.68-.45-1.24-.68-1.68-.68-.4,0-.82.19-1.26.55-1.18.96-2.54,2.83-4.09,5.61-1.99,3.56-3.79,7.86-5.4,12.89-.18.6-.45,1.23-.77,1.88-.57,1.19-1.88,2.95-3.91,5.29-1.99,2.25-3.84,4.12-5.56,5.61-.75.64-1.37.97-1.88.97-.39,0-.55-.26-.47-.78.36-2.18,1.55-4.64,3.58-7.37,1.76-2.36,3.36-4.03,4.82-4.98.68-.44,1.57-.45,2.66-.04.12.04.24.06.35.06.32,0,.48-.11.48-.33,0-.13-.07-.24-.2-.35-1.56-1.27-2.63-1.92-3.24-1.94-.57-.01-1.22.28-1.95.88-2.25,1.83-4.24,4.08-5.99,6.77-1.75,2.69-2.78,5.04-3.11,7.08-.03.15-.05.29-.05.41,0,.72.5,1.36,1.51,1.9.58.4,1,.6,1.29.6.33,0,.82-.2,1.49-.6.87-.5,2.26-1.71,4.18-3.64,1.91-1.92,3.63-3.84,5.16-5.77-.44,1.55-.98,3.9-1.65,7.05-.08.32-.12.59-.12.82,0,.44.16.79.47,1.05.1.08.53.36,1.3.82.2.12.37.18.51.18.28,0,.52-.25.7-.76.49-2.1,1.47-4.06,2.95-5.88.34-.42.3-.64-.11-.64-.19,0-.49.21-.89.64Z"/>
        <path class="cls-4" d="M676.87,289.33c-.16,0-.41.18-.77.53-.45.48-1.39,1.26-2.81,2.36-.14-.03-.24-.01-.29.04-.02.05-.02.13.04.21.06.09.14.18.25.26.34.22.74.37,1.21.45.82.15,1.68-.03,2.56-.58,1.34-.83,2-1.45,2-1.84,0-.21-.12-.39-.37-.55-.93-.59-1.53-.88-1.81-.88Z"/>
        <path class="cls-4" d="M673.77,296.97c-.48-.3-.84-.45-1.09-.45-.23,0-.47.12-.71.35-.83.81-1.6,1.66-2.33,2.56-.14.16-.21.3-.21.41,0,.36.26.34.77-.06l1.45-1.19c.36-.3.6-.45.74-.45.19,0,.26.31.22.92-.13,1.43-.68,3.63-1.66,6.58-1.02,3.04-1.95,5.22-2.79,6.51-.17.27-.26.46-.26.53,0,.1.2.25.6.44.64.31,1.15.47,1.52.47s.63-.15.76-.47c.44-1.01,1.12-2.18,2.05-3.48,1.22-1.72,1.88-2.66,1.95-2.8.19-.38.16-.57-.1-.57-.1,0-.21.06-.33.18-.79.95-1.41,1.59-1.86,1.94,1.57-4.29,2.53-7.36,2.91-9.19.06-.32.1-.6.1-.84,0-.53-.18-.88-.53-1.07-.08-.04-.48-.14-1.19-.31Z"/>
        <path class="cls-4" d="M694.33,298.61c-.02-.2-.22-.4-.58-.64-.85-.56-1.4-.84-1.63-.84s-.45.31-.65.92c-.13.35-.4.96-.81,1.84-.58,1.19-1.88,2.95-3.92,5.29-1.99,2.25-3.84,4.12-5.59,5.61-.73.64-1.36.97-1.88.97-.31,0-.47-.18-.47-.52,0-.08,0-.17.02-.26.42-2.18,1.65-4.64,3.7-7.37,1.77-2.38,3.39-4.04,4.84-4.98.67-.44,1.56-.45,2.66-.04.11.04.23.06.35.06.33,0,.49-.11.49-.33,0-.13-.07-.24-.21-.35-1.57-1.27-2.64-1.92-3.19-1.94-.57-.01-1.22.28-1.96.88-2.25,1.84-4.24,4.11-5.98,6.79-1.74,2.68-2.75,5.03-3.03,7.06-.03.19-.05.36-.05.51,0,.77.41,1.37,1.24,1.8.57.4,1,.6,1.28.6.34,0,.83-.2,1.49-.6.91-.56,2.37-1.85,4.4-3.89,2.33-2.33,4.17-4.46,5.52-6.39-.98,2.3-1.79,5.18-2.44,8.65-.08.45-.08.75,0,.9.06.16.3.36.72.62.71.43,1.2.65,1.46.65.28,0,.49-.27.63-.82.49-1.94,1.45-3.86,2.91-5.75.13-.17.19-.31.19-.43,0-.2-.12-.31-.35-.31-.25,0-.49.13-.7.37-.1.07-.33.3-.71.7-.38.39-.69.68-.92.88.54-2.36,1.53-5.29,2.95-8.77.18-.41.24-.7.21-.86Z"/>
      </g>
      <g>
        <path class="cls-2" d="M68.65,71.84l-13.82,108.03c-.51-.82-.98-1.64-1.43-2.5-.45-.82-.91-1.64-1.33-2.48-.02-.02-.03-.05-.03-.07-.38-.75-.77-1.52-1.14-2.29-.87-1.85-1.69-3.74-2.45-5.66-.35-.89-.68-1.8-1.01-2.71-.02-.03-.02-.07-.03-.12-.26-.75-.52-1.5-.77-2.27-.09-.28-.17-.56-.26-.84-.24-.8-.49-1.61-.72-2.43-.26-.94-.52-1.9-.75-2.86-.19-.79-.37-1.57-.54-2.36-.26-1.21-.51-2.45-.72-3.69-.14-.87-.28-1.75-.4-2.62-.26-1.87-.47-3.76-.61-5.66-.03-.56-.07-1.12-.09-1.68-.03-.26-.05-.54-.05-.8-.03-.58-.05-1.14-.07-1.71-.02-.82-.03-1.64-.03-2.46,0-2.52.1-5.01.31-7.48.03-.54.09-1.08.16-1.62.07-.72.14-1.43.24-2.15.07-.61.16-1.21.24-1.82.23-1.59.51-3.16.84-4.73.14-.72.3-1.43.47-2.15.02-.14.05-.3.1-.45.14-.61.3-1.22.45-1.83.91-3.55,2.06-7.02,3.39-10.38.51-1.28,1.03-2.52,1.59-3.74.33-.75.68-1.48,1.03-2.2.59-1.21,1.21-2.39,1.83-3.56.33-.63.68-1.24,1.05-1.87.77-1.34,1.57-2.65,2.41-3.95.38-.59.77-1.19,1.19-1.78.4-.61.84-1.21,1.26-1.8.4-.56.82-1.12,1.24-1.68s.86-1.14,1.31-1.69c1.41-1.8,2.92-3.53,4.47-5.21.38-.42.77-.82,1.15-1.22.49-.51,1-1.01,1.5-1.52Z"/>
        <path class="cls-2" d="M150.88,48.61l-84.44,146.65c-.98-1.03-1.92-2.08-2.83-3.16-.47-.54-.94-1.08-1.38-1.64-1.14-1.38-2.22-2.79-3.27-4.26L94.76,53.95c1.21-.54,2.43-1.05,3.67-1.54.49-.19.98-.38,1.47-.56.63-.23,1.28-.47,1.9-.68.65-.23,1.29-.44,1.94-.65,2.08-.68,4.21-1.28,6.36-1.78.61-.16,1.22-.3,1.85-.44,3.56-.77,7.2-1.33,10.9-1.66.37-.03.75-.05,1.12-.09.75-.05,1.5-.1,2.25-.14,1.5-.09,3.02-.12,4.54-.12l3.88.1,4.3.28,4.24.49c.24.02.47.05.72.1l6.99,1.33Z"/>
        <path class="cls-2" d="M212.4,100.8l-135.67,103.81c-2.5-1.94-4.89-4.02-7.18-6.2L178.01,59.98c1.92,1.22,3.81,2.52,5.62,3.88.89.68,1.76,1.35,2.62,2.04.87.72,1.73,1.43,2.59,2.18.86.73,1.68,1.48,2.5,2.25.82.77,1.62,1.57,2.41,2.36,1.59,1.61,3.11,3.28,4.56,5,.73.86,1.43,1.73,2.13,2.62.7.89,1.38,1.8,2.03,2.71.61.82,1.19,1.66,1.75,2.52.21.3.4.59.59.91.49.73.96,1.47,1.41,2.22.89,1.47,1.75,2.95,2.55,4.47.26.49.52.98.77,1.47.35.68.7,1.36,1.01,2.06.07.12.12.23.16.35.26.52.51,1.05.73,1.57.33.73.65,1.47.96,2.22Z"/>
        <path class="cls-2" d="M219.14,134.67c0,.77-.02,1.52-.03,2.29-.02.86-.05,1.71-.1,2.55-.03.86-.1,1.69-.17,2.53-.03.54-.09,1.07-.14,1.59-.1,1.1-.24,2.18-.38,3.25-.19,1.4-.42,2.76-.68,4.12-.17.89-.35,1.76-.52,2.64-.03.1-.05.21-.07.3-.14.59-.28,1.17-.42,1.76-.23.98-.49,1.94-.75,2.9-.02.05-.03.1-.05.17-.24.86-.51,1.73-.77,2.59-.68,2.15-1.45,4.26-2.31,6.34-.16.4-.31.8-.49,1.21-.31.77-.65,1.54-1,2.31-.45,1.01-.93,2.01-1.43,3-.38.79-.8,1.57-1.22,2.34-.28.51-.56,1.03-.86,1.54-.03.09-.07.17-.12.24-.28.49-.56.98-.84,1.47-.14.21-.28.44-.4.65-.49.8-.98,1.59-1.5,2.38-.59.93-1.22,1.83-1.85,2.74l-110.04,29.01s-.02-.02-.03-.02c-1.08-.51-2.15-1.05-3.2-1.61-2.15-1.12-4.23-2.32-6.25-3.62-1.01-.65-2.03-1.31-3-1.99l138.44-78.5c.03.24.05.47.05.72.05.72.09,1.45.1,2.18.03.96.05,1.94.05,2.92Z"/>
        <path class="cls-2" d="M176.65,210.22c-.84.51-1.68,1-2.53,1.48-.86.49-1.71.94-2.59,1.4s-1.76.91-2.64,1.33c-.89.42-1.78.84-2.67,1.22-1.82.8-3.67,1.54-5.54,2.2-.94.35-1.87.66-2.83.96-.94.31-1.9.59-2.86.87t-.03.02c-.94.26-1.9.52-2.86.75-.84.21-1.68.4-2.52.58-.24.07-.49.12-.73.16-.89.19-1.78.37-2.69.52-.79.14-1.57.28-2.36.38-.09.02-.16.03-.24.03-.4.07-.8.12-1.21.16-1.22.17-2.46.31-3.7.42-1.15.1-2.32.17-3.49.23-.54.03-1.12.05-1.66.07-.91.03-1.82.05-2.72.05-.86,0-1.71-.02-2.57-.05-.47,0-.94-.02-1.41-.05h-.02c-.05.02-.12.02-.17,0-.66-.02-1.31-.07-1.96-.12-.42-.02-.84-.05-1.24-.09-4.28-.35-8.47-1.01-12.58-1.96-.17-.03-.35-.07-.52-.12-1.12-.26-2.24-.54-3.34-.86-.91-.24-1.82-.52-2.72-.8l72.35-8.77.07-.02Z"/>
      </g>
      <g>
        <rect class="cls-1" x="288.52" y="18.98" width="65.39" height="65.37"/>
        <path class="cls-5" d="M355,85.43h-67.57V17.89h67.57v67.54ZM289.61,83.26h63.21V20.07h-63.21v63.19Z"/>
      </g>
      <g>
        <rect class="cls-1" x="288.52" y="99.17" width="65.39" height="65.37"/>
        <path class="cls-5" d="M355,165.62h-67.57v-67.54h67.57v67.54ZM289.61,163.45h63.21v-63.19h-63.21v63.19Z"/>
      </g>
      <g>
        <rect class="cls-1" x="288.52" y="179.36" width="65.39" height="65.37"/>
        <path class="cls-5" d="M355,245.82h-67.57v-67.54h67.57v67.54ZM289.61,243.64h63.21v-63.19h-63.21v63.19Z"/>
      </g>
      <g>
        <path class="cls-5" d="M374.7,74.5c2.61,1.15,5.49,1.74,8.66,1.75,2.43,0,4.76-.35,6.96-1.04,2.2-.68,4.22-1.72,6.05-3.08,1.84-1.36,3.43-3.05,4.78-5.06,1.35-2.01,2.41-4.33,3.15-6.97.74-2.64,1.11-5.6,1.13-8.86-.01-3.56-.52-6.8-1.52-9.74-1-2.95-2.43-5.49-4.31-7.63-1.87-2.15-4.13-3.81-6.76-4.97-2.62-1.16-5.58-1.76-8.85-1.77-3.18.01-6.12.6-8.79,1.77-2.68,1.17-5,2.86-6.97,5.04-1.97,2.2-3.5,4.81-4.58,7.87-1.09,3.07-1.65,6.48-1.66,10.27,0,3.61.53,6.88,1.56,9.84,1.04,2.95,2.49,5.5,4.38,7.64,1.89,2.14,4.15,3.78,6.76,4.95ZM369.1,45.9c.4-1.93,1.01-3.74,1.83-5.41.81-1.66,1.84-3.11,3.06-4.37,1.22-1.25,2.66-2.22,4.29-2.92,1.63-.7,3.47-1.05,5.51-1.07,2.04.01,3.88.37,5.5,1.11,1.63.71,3.04,1.71,4.25,2.97,1.21,1.27,2.22,2.73,3.02,4.37.8,1.64,1.4,3.41,1.8,5.26.39,1.87.59,3.76.59,5.68,0,2.71-.34,5.26-1.01,7.63-.67,2.37-1.65,4.46-2.95,6.27-1.31,1.81-2.89,3.23-4.78,4.26-1.89,1.02-4.05,1.54-6.49,1.56-1.95-.01-3.73-.35-5.32-1.02-1.6-.68-3.01-1.62-4.24-2.83-1.24-1.21-2.27-2.63-3.1-4.24-.85-1.62-1.48-3.38-1.92-5.29-.42-1.9-.65-3.87-.65-5.93s.2-4.1.61-6.04Z"/>
        <polygon class="cls-5" points="485.44 70.33 464.85 70.33 464.85 53.21 483.25 53.21 483.25 48.13 464.85 48.13 464.85 33.12 484.38 33.12 484.38 27.98 458.65 27.98 458.65 75.48 485.44 75.48 485.44 70.33"/>
        <path class="cls-5" d="M537.31,75.48h6.2v-20.23l15.87-27.27h-6.91l-6.84,13.11c-.93,1.78-1.8,3.48-2.61,5.09-.81,1.6-1.54,3.17-2.19,4.71h-.14c-.5-1.09-.99-2.17-1.49-3.22-.51-1.04-1.02-2.1-1.55-3.18-.53-1.07-1.09-2.21-1.68-3.39l-6.7-13.11h-7.05l15.09,27.35v20.16Z"/>
        <path class="cls-5" d="M433.59,75.48l16.99-47.5h-6.56l-8.04,23.47c-1.09,3.1-2.1,6.14-3.03,9.12-.92,2.96-1.71,5.82-2.4,8.58h-.14c-.67-2.77-1.45-5.63-2.3-8.56-.86-2.94-1.79-6-2.77-9.2l-7.4-23.4h-6.7l15.58,47.5h6.77Z"/>
        <polygon class="cls-5" points="522.84 70.33 502.53 70.33 502.53 27.98 496.33 27.98 496.33 75.48 522.84 75.48 522.84 70.33"/>
        <rect class="cls-5" x="543.05" y="107.7" width="5.25" height="47.5"/>
        <path class="cls-5" d="M624.81,155.2v-47.5h-4.89v19.87c0,2.46.02,4.77.05,6.94.03,2.17.1,4.28.18,6.35.09,2.05.21,4.13.37,6.24l-.18.07c-.92-2.42-1.98-4.91-3.17-7.45-1.19-2.55-2.52-5.22-3.98-7.99l-12.82-24.03h-5.72v47.5h4.89v-20.3c0-2.62,0-5.04-.03-7.26-.02-2.22-.05-4.33-.1-6.34-.06-2.02-.13-4.01-.23-5.99l.18-.07c.99,2.58,2.14,5.2,3.41,7.87,1.28,2.68,2.63,5.33,4.04,7.99l12.76,24.1h5.25Z"/>
        <path class="cls-5" d="M369.18,134.62h4.89c1.56.06,2.87.4,3.94,1.03,1.05.62,1.92,1.61,2.59,2.94.67,1.34,1.19,3.09,1.58,5.26.54,2.97,1.03,5.43,1.47,7.36.44,1.94.83,3.27,1.15,3.98h5.37c-.4-.93-.86-2.5-1.37-4.72-.49-2.22-1.07-4.99-1.73-8.32-.46-2.48-1.18-4.54-2.13-6.17-.95-1.63-2.2-2.78-3.71-3.42v-.21c1.41-.57,2.68-1.4,3.81-2.5,1.12-1.09,2.03-2.44,2.68-4.04.66-1.61,1-3.44,1.02-5.51-.01-1.88-.29-3.6-.84-5.16-.55-1.55-1.32-2.86-2.32-3.93-1.2-1.31-2.75-2.28-4.65-2.91-1.89-.65-4.21-.97-6.98-.97-1.18,0-2.36.05-3.56.13-1.19.08-2.35.2-3.44.35-1.09.14-2.08.32-2.96.51v46.87h5.19v-20.58ZM369.18,112.63c.45-.14,1.1-.26,1.96-.35.86-.1,1.92-.14,3.17-.14,1.84-.01,3.45.3,4.84.92,1.38.62,2.45,1.58,3.23,2.88.77,1.3,1.16,2.97,1.17,5.01,0,1.82-.38,3.41-1.11,4.75-.74,1.35-1.78,2.39-3.13,3.15-1.36.74-2.96,1.12-4.82,1.13h-5.31v-17.34Z"/>
        <path class="cls-5" d="M584.87,113.59c-1.58-2.15-3.49-3.81-5.71-4.97-2.22-1.16-4.72-1.76-7.48-1.77-2.69,0-5.18.6-7.43,1.77-2.27,1.17-4.22,2.85-5.89,5.04-1.67,2.2-2.96,4.81-3.88,7.87-.92,3.07-1.39,6.48-1.4,10.27.01,3.61.45,6.88,1.32,9.84.87,2.95,2.11,5.5,3.71,7.63,1.6,2.14,3.51,3.78,5.71,4.95,2.21,1.15,4.64,1.74,7.32,1.75,2.06,0,4.02-.35,5.88-1.04,1.86-.68,3.57-1.72,5.12-3.08,1.55-1.36,2.9-3.04,4.05-5.06,1.14-2.01,2.04-4.33,2.66-6.98.62-2.64.94-5.6.95-8.86,0-3.56-.44-6.8-1.28-9.74-.84-2.95-2.06-5.49-3.65-7.63ZM583.46,138.87c-.57,2.37-1.4,4.46-2.49,6.27-1.1,1.81-2.44,3.23-4.04,4.26-1.6,1.02-3.43,1.54-5.49,1.56-1.65-.01-3.15-.35-4.5-1.02-1.35-.68-2.54-1.62-3.59-2.83-1.04-1.21-1.92-2.63-2.62-4.24-.72-1.62-1.25-3.38-1.62-5.29-.36-1.9-.55-3.87-.55-5.93s.17-4.1.52-6.04c.34-1.93.86-3.75,1.55-5.41.69-1.66,1.55-3.11,2.58-4.37,1.04-1.24,2.25-2.22,3.63-2.92,1.38-.7,2.93-1.05,4.66-1.07,1.73.01,3.28.37,4.65,1.11,1.38.72,2.57,1.71,3.6,2.97,1.02,1.27,1.88,2.73,2.55,4.37.68,1.64,1.19,3.41,1.52,5.26.33,1.87.5,3.76.5,5.68,0,2.71-.29,5.26-.86,7.63Z"/>
        <path class="cls-5" d="M662.56,155.2l-13.71-47.5h-6.2l-13.71,47.5h5.36l4.17-14.94h14.25l4.29,14.94h5.54ZM639.55,135.47l3.93-13.74c.42-1.46.79-2.9,1.1-4.36.33-1.44.64-2.86.92-4.24h.12c.29,1.36.61,2.77.93,4.2.33,1.44.72,2.91,1.15,4.46l4,13.67h-12.16Z"/>
        <polygon class="cls-5" points="455.12 112.84 455.12 107.7 433.48 107.7 433.48 155.2 438.72 155.2 438.72 133.7 453.87 133.7 453.87 128.63 438.72 128.63 438.72 112.84 455.12 112.84"/>
        <path class="cls-5" d="M505.82,131.72c-1.51-1.27-3.4-2.42-5.66-3.44-1.85-.83-3.36-1.67-4.53-2.51-1.18-.85-2.06-1.81-2.62-2.87-.56-1.06-.83-2.31-.83-3.78,0-.82.13-1.64.41-2.48.28-.83.72-1.59,1.32-2.3.59-.69,1.38-1.26,2.35-1.68.96-.44,2.13-.65,3.5-.66,1.21.01,2.31.14,3.3.38.99.25,1.84.54,2.57.88.72.35,1.29.68,1.71,1l1.43-5c-.58-.41-1.29-.79-2.16-1.14-.85-.35-1.85-.64-2.96-.85-1.11-.22-2.35-.34-3.7-.34-1.96.01-3.74.33-5.33.97-1.59.63-2.96,1.54-4.1,2.7-1.14,1.15-2.02,2.51-2.63,4.09-.62,1.56-.93,3.28-.93,5.13,0,2.2.44,4.15,1.29,5.83.86,1.68,2.08,3.16,3.66,4.42,1.58,1.26,3.47,2.36,5.66,3.29,1.8.79,3.26,1.63,4.37,2.52,1.12.89,1.93,1.89,2.44,3.01.51,1.12.77,2.4.76,3.84,0,1.61-.34,3.02-1,4.23-.66,1.21-1.61,2.16-2.86,2.84-1.25.68-2.76,1.02-4.54,1.03-1.81-.02-3.5-.32-5.09-.89-1.59-.57-2.97-1.3-4.15-2.21l-1.37,5.14c.74.57,1.65,1.09,2.75,1.55,1.1.47,2.3.84,3.6,1.12,1.3.27,2.6.41,3.91.42,2.36-.01,4.43-.39,6.19-1.12,1.76-.73,3.21-1.74,4.37-3,1.15-1.27,2.01-2.74,2.59-4.38.57-1.64.85-3.4.85-5.24,0-2.32-.38-4.32-1.13-6.03-.76-1.72-1.89-3.21-3.4-4.49Z"/>
        <path class="cls-5" d="M523.84,155.97c2.36-.01,4.43-.39,6.19-1.12,1.76-.73,3.21-1.74,4.38-3,1.15-1.27,2.02-2.74,2.59-4.38.57-1.64.86-3.4.86-5.24,0-2.32-.38-4.32-1.13-6.03-.75-1.72-1.89-3.21-3.4-4.49-1.51-1.27-3.4-2.42-5.66-3.44-1.85-.83-3.36-1.67-4.53-2.51-1.18-.85-2.06-1.81-2.62-2.87-.56-1.06-.83-2.31-.83-3.78,0-.82.13-1.64.41-2.48.28-.83.73-1.59,1.32-2.3.6-.69,1.38-1.26,2.34-1.68.96-.44,2.13-.65,3.5-.66,1.21.01,2.32.14,3.3.38.99.25,1.84.54,2.56.88.72.35,1.29.68,1.71,1l1.43-5c-.57-.41-1.29-.79-2.15-1.14-.86-.35-1.85-.64-2.96-.85-1.11-.22-2.35-.34-3.7-.34-1.96.01-3.74.33-5.33.97-1.59.63-2.96,1.54-4.1,2.7-1.14,1.15-2.02,2.51-2.63,4.09-.62,1.56-.92,3.28-.93,5.13,0,2.2.44,4.15,1.29,5.83.85,1.68,2.08,3.16,3.66,4.42,1.58,1.26,3.47,2.36,5.66,3.29,1.8.79,3.26,1.63,4.37,2.52,1.12.89,1.93,1.89,2.45,3.01.51,1.12.76,2.4.75,3.84,0,1.61-.34,3.02-1,4.23-.66,1.21-1.61,2.16-2.86,2.84-1.25.68-2.76,1.02-4.54,1.03-1.81-.02-3.5-.32-5.09-.89-1.59-.57-2.97-1.3-4.15-2.21l-1.37,5.14c.74.57,1.65,1.09,2.75,1.55,1.1.47,2.3.84,3.6,1.12,1.3.27,2.59.41,3.91.42Z"/>
        <polygon class="cls-5" points="688.93 150.05 671.76 150.05 671.76 107.7 666.51 107.7 666.51 155.2 688.93 155.2 688.93 150.05"/>
        <polygon class="cls-5" points="482.38 112.84 482.38 107.7 460.62 107.7 460.62 155.2 483.27 155.2 483.27 150.05 465.87 150.05 465.87 132.93 481.42 132.93 481.42 127.85 465.87 127.85 465.87 112.84 482.38 112.84"/>
        <path class="cls-5" d="M423.77,113.59c-1.58-2.15-3.49-3.81-5.71-4.97-2.22-1.16-4.72-1.76-7.49-1.77-2.69,0-5.18.6-7.43,1.77-2.26,1.17-4.23,2.85-5.89,5.04-1.67,2.2-2.96,4.81-3.88,7.87-.92,3.07-1.39,6.48-1.4,10.27,0,3.61.45,6.88,1.32,9.84.87,2.95,2.11,5.5,3.71,7.63,1.6,2.14,3.51,3.78,5.71,4.95,2.21,1.15,4.64,1.74,7.33,1.75,2.06,0,4.02-.35,5.88-1.04,1.86-.68,3.57-1.72,5.12-3.08,1.55-1.36,2.9-3.04,4.05-5.06,1.14-2.01,2.04-4.33,2.66-6.98.62-2.64.94-5.6.95-8.86,0-3.56-.44-6.8-1.28-9.74-.84-2.95-2.06-5.49-3.65-7.63ZM422.35,138.87c-.57,2.37-1.4,4.46-2.49,6.27-1.11,1.81-2.45,3.23-4.04,4.26-1.6,1.02-3.43,1.54-5.48,1.56-1.65-.01-3.15-.35-4.5-1.02-1.35-.68-2.54-1.62-3.59-2.83-1.04-1.21-1.91-2.63-2.62-4.24-.72-1.62-1.25-3.38-1.62-5.29-.36-1.9-.55-3.87-.55-5.93s.17-4.1.52-6.04c.34-1.93.85-3.75,1.55-5.41.69-1.66,1.55-3.11,2.58-4.37,1.03-1.24,2.24-2.22,3.63-2.92,1.38-.7,2.93-1.05,4.66-1.07,1.73.01,3.28.37,4.65,1.11,1.38.72,2.57,1.71,3.6,2.97,1.02,1.27,1.88,2.73,2.55,4.37.68,1.64,1.19,3.41,1.52,5.26.33,1.87.5,3.76.5,5.68,0,2.71-.29,5.26-.86,7.63Z"/>
        <path class="cls-5" d="M455.14,210.89c-1.09,3.1-2.11,6.14-3.03,9.12-.92,2.96-1.72,5.82-2.4,8.58h-.14c-.67-2.77-1.45-5.63-2.3-8.56-.86-2.94-1.79-6-2.77-9.2l-7.4-23.4h-6.7l15.58,47.5h6.77l16.99-47.5h-6.56l-8.04,23.47Z"/>
        <polygon class="cls-5" points="612.37 192.63 626.82 192.63 626.82 234.92 633.02 234.92 633.02 192.63 647.55 192.63 647.55 187.42 612.37 187.42 612.37 192.63"/>
        <path class="cls-5" d="M684.28,187.42l-6.84,13.11c-.93,1.78-1.8,3.47-2.61,5.09-.81,1.6-1.54,3.17-2.19,4.71h-.14c-.5-1.09-.99-2.17-1.49-3.22-.5-1.04-1.02-2.1-1.55-3.18-.53-1.07-1.09-2.21-1.68-3.39l-6.7-13.11h-7.05l15.09,27.35v20.15h6.2v-20.23l15.86-27.27h-6.91Z"/>
        <path class="cls-5" d="M544.32,221.88c-.55-2.48-1.4-4.53-2.52-6.17-1.13-1.63-2.6-2.78-4.38-3.42v-.21c1.67-.57,3.16-1.4,4.5-2.5,1.33-1.09,2.4-2.44,3.17-4.04.79-1.61,1.19-3.44,1.21-5.51-.01-1.88-.34-3.6-1-5.16-.65-1.55-1.56-2.86-2.74-3.93-1.42-1.31-3.25-2.28-5.5-2.91-2.23-.65-4.99-.97-8.25-.97-1.4,0-2.8.05-4.21.13-1.41.08-2.77.2-4.07.35-1.3.14-2.46.32-3.5.5v46.87h6.14v-20.58h5.78c1.85.06,3.4.4,4.65,1.03,1.25.62,2.27,1.61,3.07,2.94.79,1.34,1.41,3.09,1.87,5.26.63,2.97,1.23,5.43,1.74,7.36.52,1.94.98,3.27,1.36,3.98h6.35c-.48-.93-1.02-2.5-1.62-4.72-.59-2.22-1.27-4.99-2.05-8.32ZM535.15,208.56c-1.61.74-3.5,1.12-5.7,1.13h-6.27v-17.34c.53-.14,1.3-.26,2.31-.35,1.02-.1,2.27-.14,3.75-.14,2.17-.01,4.08.31,5.72.92,1.63.62,2.9,1.59,3.82,2.88.91,1.3,1.38,2.97,1.39,5.01-.01,1.82-.45,3.41-1.32,4.75-.87,1.35-2.11,2.39-3.7,3.15Z"/>
        <path class="cls-5" d="M579.65,211.44c-1.79-1.27-4.02-2.42-6.7-3.44-2.19-.83-3.97-1.67-5.36-2.51-1.4-.85-2.43-1.81-3.1-2.87-.66-1.06-.99-2.31-.99-3.78,0-.82.15-1.64.48-2.48.33-.83.86-1.6,1.56-2.3.71-.69,1.63-1.26,2.77-1.68,1.14-.44,2.51-.65,4.14-.66,1.43.01,2.74.14,3.9.38,1.17.25,2.17.54,3.03.88.85.35,1.53.68,2.02,1l1.69-5c-.68-.41-1.53-.79-2.55-1.14-1.01-.35-2.19-.64-3.5-.85-1.32-.22-2.78-.34-4.38-.34-2.32.01-4.42.33-6.3.97-1.88.64-3.5,1.54-4.85,2.7-1.35,1.15-2.39,2.51-3.11,4.09-.73,1.56-1.09,3.28-1.1,5.13.01,2.19.52,4.15,1.53,5.82,1.01,1.68,2.46,3.16,4.32,4.42,1.87,1.26,4.1,2.36,6.7,3.29,2.12.79,3.85,1.63,5.17,2.53,1.33.89,2.28,1.89,2.89,3.01.6,1.11.9,2.4.89,3.84,0,1.61-.4,3.02-1.19,4.23-.78,1.21-1.9,2.16-3.38,2.84-1.48.68-3.27,1.02-5.37,1.03-2.14-.02-4.14-.32-6.02-.89-1.88-.57-3.51-1.3-4.91-2.21l-1.62,5.14c.87.57,1.95,1.09,3.25,1.55,1.3.47,2.73.84,4.25,1.13,1.54.27,3.07.41,4.62.42,2.8,0,5.24-.38,7.32-1.12,2.08-.73,3.79-1.74,5.17-3.01,1.36-1.27,2.38-2.74,3.07-4.38.67-1.64,1.01-3.39,1.01-5.24,0-2.32-.45-4.32-1.34-6.03-.89-1.72-2.23-3.21-4.02-4.49Z"/>
        <polygon class="cls-5" points="484.75 212.65 503.15 212.65 503.15 207.57 484.75 207.57 484.75 192.56 504.28 192.56 504.28 187.42 478.55 187.42 478.55 234.92 505.34 234.92 505.34 229.78 484.75 229.78 484.75 212.65"/>
        <path class="cls-5" d="M394.72,207.29c0,2.46.02,4.77.06,6.94.03,2.17.12,4.29.21,6.35.11,2.05.25,4.13.44,6.24l-.21.07c-1.1-2.42-2.34-4.91-3.75-7.45-1.41-2.55-2.98-5.22-4.71-7.99l-15.16-24.03h-6.77v47.5h5.78v-20.3c0-2.62,0-5.04-.03-7.26-.03-2.22-.06-4.33-.12-6.34-.07-2.02-.15-4.01-.27-5.99l.21-.07c1.17,2.58,2.52,5.2,4.03,7.87,1.52,2.68,3.11,5.33,4.78,7.99l15.09,24.1h6.2v-47.5h-5.78v19.87Z"/>
        <rect class="cls-5" x="414.88" y="187.42" width="6.21" height="47.5"/>
        <rect class="cls-5" x="597.14" y="187.42" width="6.21" height="47.5"/>
      </g>
      <path class="cls-4" d="M304.79,72.99h26.51v-4.87h-20.3V27.98h-6.21v45.01h0ZM304.86,153.26h6.13v-18.03c.7.16,1.48.27,2.3.32.83.05,1.71.08,2.63.08,2.01,0,3.9-.19,5.7-.56,1.79-.37,3.43-.91,4.92-1.65,1.49-.74,2.8-1.65,3.9-2.74,1.2-1.17,2.12-2.56,2.74-4.16.61-1.6.93-3.42.93-5.46,0-2.01-.39-3.82-1.13-5.41-.74-1.59-1.75-2.93-3.03-4-1.41-1.22-3.22-2.14-5.44-2.77-2.22-.65-4.85-.97-7.88-.97-2.47.01-4.67.09-6.63.26-1.95.17-3.66.37-5.14.61v44.48h0ZM310.99,112.99c.54-.13,1.29-.25,2.28-.34.99-.09,2.15-.13,3.5-.13,2.25,0,4.21.32,5.89.97,1.67.65,2.98,1.62,3.9,2.94.94,1.31,1.41,2.97,1.42,4.98-.01,2.03-.49,3.75-1.45,5.18-.95,1.42-2.32,2.5-4.09,3.25-1.77.74-3.9,1.12-6.38,1.12-1.02,0-1.96-.03-2.81-.11-.84-.07-1.6-.19-2.27-.36v-17.5h0ZM304.79,188.53v26.51c.01,3.5.45,6.47,1.29,8.93.86,2.45,2.06,4.43,3.6,5.94,1.53,1.52,3.34,2.63,5.4,3.33,2.07.7,4.33,1.05,6.77,1.03,2.58.01,4.97-.35,7.16-1.09,2.18-.73,4.08-1.88,5.7-3.44,1.61-1.56,2.87-3.57,3.76-6.03.89-2.46,1.35-5.42,1.36-8.87v-26.31h-6.21v26.71c-.01,3.28-.49,5.99-1.44,8.1-.95,2.1-2.29,3.67-4.02,4.67-1.73,1.01-3.76,1.52-6.1,1.51-2.14.01-4.03-.48-5.68-1.48-1.66-.99-2.98-2.55-3.93-4.66-.95-2.1-1.43-4.83-1.46-8.16v-26.71h-6.21Z"/>
      <g>
        <rect class="cls-1" x=".92" y=".92" width="695.95" height="6.66"/>
        <path class="cls-5" d="M697.78,8.49H0V0h697.78v8.49ZM1.84,6.66h694.11V1.83H1.84v4.82Z"/>
      </g>
      <g>
        <rect class="cls-1" x=".92" y="263" width="695.95" height="6.66"/>
        <path class="cls-5" d="M697.78,270.57H0v-8.49h697.78v8.49ZM1.84,268.74h694.11v-4.83H1.84v4.83Z"/>
      </g>
      <g>
        <path class="cls-5" d="M130.77,16.18c-65.35,0-118.51,53.16-118.51,118.51s53.16,118.51,118.51,118.51,118.51-53.16,118.51-118.51S196.11,16.18,130.77,16.18ZM130.77,250.99c-64.13,0-116.3-52.17-116.3-116.3S66.64,18.39,130.77,18.39s116.3,52.17,116.3,116.3-52.17,116.3-116.3,116.3Z"/>
        <path class="cls-5" d="M220.25,134.69c0-49.34-40.14-89.47-89.48-89.47s-89.48,40.14-89.48,89.47,40.14,89.48,89.48,89.48,89.48-40.14,89.48-89.48ZM43.5,134.69c0-23.71,9.51-45.22,24.91-60.96l-13.34,104.3c-7.34-12.78-11.57-27.57-11.57-43.34ZM67.04,194.23c-2.77-2.97-5.34-6.13-7.69-9.46L94.37,55.4c11.09-5.11,23.41-7.98,36.4-7.98,6.71,0,13.24.79,19.52,2.23l-83.24,144.58ZM70.27,197.5L177.28,60.91c15.21,9.62,27.25,23.8,34.19,40.61l-133.79,102.37c-2.59-1.99-5.06-4.13-7.41-6.39ZM81.58,206.73l136.28-77.27c.1,1.73.17,3.47.17,5.23,0,19.18-6.23,36.92-16.76,51.34l-106.57,28.1c-4.6-2.1-8.99-4.57-13.12-7.4ZM130.77,221.96c-8.22,0-16.16-1.17-23.71-3.3l66.73-8.09c-12.71,7.23-27.38,11.39-43.02,11.39Z"/>
        <path class="cls-5" d="M23.24,144.72c1.13.64,2.37.94,3.7.94,1.99-.02,3.69-.73,5.08-2.15,1.39-1.42,2.08-3.15,2.06-5.2-.02-2.02-.73-3.73-2.15-5.13-1.42-1.4-3.14-2.08-5.16-2.07-2.04.01-3.75.73-5.14,2.15-1.38,1.42-2.07,3.18-2.05,5.27,0,1.29.34,2.49.99,3.59.65,1.11,1.54,1.97,2.68,2.61ZM21.7,135.49c.53-.93,1.23-1.65,2.11-2.17.88-.52,1.87-.78,2.97-.79,1.1,0,2.11.24,3.01.75.91.5,1.62,1.21,2.15,2.11.53.91.79,1.9.8,2.97.01,1.6-.54,2.98-1.66,4.12-1.13,1.14-2.51,1.72-4.15,1.73-1.1,0-2.11-.24-3.02-.74-.91-.51-1.63-1.22-2.17-2.13-.54-.91-.81-1.87-.82-2.9,0-1.04.25-2.03.78-2.96Z"/>
        <polygon class="cls-5" points="33.11 147.33 33.89 152.58 21.53 154.41 21.74 155.79 35.41 153.77 34.43 147.14 33.11 147.33"/>
        <polygon class="cls-5" points="43.49 93.62 44.08 92.39 38.12 89.54 33.51 82.47 32.82 83.91 36.45 89.51 29.79 90.23 29.1 91.68 37.54 90.77 43.49 93.62"/>
        <polygon class="cls-5" points="34.59 123.23 21.82 115.22 21.6 116.71 31.47 122.91 20.22 125.85 20 127.33 34.55 123.53 34.59 123.23"/>
        <polygon class="cls-5" points="39.88 98.22 38.01 103.18 26.33 98.8 25.84 100.1 38.77 104.96 41.13 98.69 39.88 98.22"/>
        <polygon class="cls-5" points="35.01 113.17 29.77 111.81 31.4 105.54 30.09 105.2 28.46 111.47 24.27 110.38 25.92 104.06 24.6 103.71 22.61 111.38 35.98 114.86 37.96 107.25 36.64 106.9 35.01 113.17"/>
        <path class="cls-5" d="M64.93,64.93l-4.13-4.92.76-.64c1.31-1.11,2.17-1.91,2.54-2.43.53-.72.78-1.45.77-2.23,0-.77-.31-1.51-.9-2.22-.59-.7-1.27-1.12-2.04-1.26-.78-.14-1.52-.03-2.25.33-.51.25-1.37.88-2.58,1.9l-2.11,1.77,8.88,10.59,1.06-.89ZM56.91,55.37l1.87-1.57c.71-.6,1.28-.97,1.7-1.11.42-.14.85-.14,1.29,0,.44.13.81.38,1.11.73.31.36.49.78.54,1.23.05.46-.03.89-.26,1.3-.22.42-.7.92-1.42,1.53l-1.81,1.49-3.02-3.6Z"/>
        <polygon class="cls-5" points="98.74 44.4 96.64 37.96 101.92 36.25 101.5 34.95 96.22 36.66 94.89 32.55 100.17 30.84 99.75 29.54 93.16 31.68 97.43 44.83 98.74 44.4"/>
        <polygon class="cls-5" points="113.93 40.48 113.65 39.14 107.31 40.49 106.18 35.19 112.52 33.84 112.24 32.52 105.9 33.87 105 29.64 111.4 28.28 111.11 26.95 103.37 28.59 106.24 42.11 113.93 40.48"/>
        <path class="cls-5" d="M169.99,47.02l3.99-3.07,5.31,2.7-.13,5.04,1.33.67.53-15.24-.3-.15-12.09,9.35,1.37.7ZM179.53,39.66l-.18,5.53-4.21-2.15,4.39-3.38Z"/>
        <path class="cls-5" d="M82.7,49.64c1.89.61,3.75.45,5.58-.48,1.8-.92,3.01-2.32,3.62-4.22.62-1.89.46-3.74-.46-5.54-.92-1.82-2.33-3.03-4.22-3.64-1.89-.6-3.77-.43-5.63.52-1.15.58-2.07,1.42-2.77,2.49-.7,1.08-1.07,2.26-1.13,3.57-.06,1.3.22,2.54.82,3.72.91,1.77,2.3,2.97,4.19,3.58ZM80.04,39.49c.58-.89,1.31-1.57,2.22-2.03.93-.47,1.93-.68,2.99-.63,1.07.05,2.03.36,2.88.92.86.56,1.54,1.33,2.04,2.3.5.98.72,1.99.68,3.03-.04,1.04-.36,1.99-.93,2.87-.58.88-1.34,1.56-2.3,2.05-1.43.72-2.91.85-4.43.36-1.53-.5-2.66-1.47-3.41-2.94-.5-.98-.73-2-.68-3.03.05-1.04.36-2,.93-2.89Z"/>
        <path class="cls-5" d="M146.41,40.6c1.99.35,3.8-.04,5.43-1.19,1.63-1.14,2.62-2.71,2.97-4.7.35-2.01-.04-3.83-1.18-5.45-1.15-1.62-2.75-2.61-4.81-2.98-1.27-.22-2.51-.12-3.71.32-1.2.44-2.22,1.16-3.05,2.17-.83,1-1.36,2.16-1.59,3.47-.34,1.96.05,3.76,1.19,5.38,1.15,1.63,2.73,2.61,4.74,2.97ZM141.88,32.5c.19-1.09.62-2.03,1.28-2.83.67-.8,1.49-1.38,2.48-1.75,1-.36,1.99-.46,3-.28,1.02.18,1.95.61,2.77,1.3.82.68,1.4,1.5,1.75,2.46.35.96.43,1.98.24,3.07-.19,1.08-.62,2.03-1.28,2.82-.66.8-1.48,1.38-2.47,1.73-.99.35-2.01.44-3.06.25-1.58-.28-2.83-1.07-3.75-2.38-.93-1.31-1.24-2.77-.96-4.39Z"/>
        <rect class="cls-5" x="129.61" y="31.57" width="13.82" height="1.38" transform="translate(94.88 166.22) rotate(-86.02)"/>
        <path class="cls-5" d="M129.87,37.58c-.41.23-.84.34-1.3.35-1.09.02-2.06-.72-2.91-2.23l-1.16.72c.6,1.04,1.24,1.78,1.93,2.22.69.44,1.45.64,2.29.63,1.09-.02,2.01-.4,2.75-1.15.75-.76,1.11-1.63,1.1-2.63-.01-.7-.25-1.38-.71-2.06-.45-.68-1.29-1.45-2.5-2.31-1.02-.73-1.63-1.18-1.81-1.35-.34-.33-.57-.63-.7-.91-.13-.28-.19-.57-.2-.87,0-.5.16-.91.51-1.26.35-.35.8-.53,1.36-.53.43,0,.83.1,1.2.31.37.21.82.66,1.36,1.34l1.11-.88c-.65-.85-1.26-1.44-1.83-1.75-.57-.31-1.18-.46-1.83-.45-.61.01-1.18.16-1.7.45-.52.3-.92.7-1.2,1.19-.28.5-.41,1.05-.4,1.66.01.75.27,1.46.77,2.09.29.39,1.02,1,2.18,1.85,1.16.85,1.96,1.57,2.4,2.18.32.44.49.89.5,1.36,0,.41-.09.79-.3,1.16-.2.37-.51.66-.91.88Z"/>
        <polygon class="cls-5" points="160.94 32.72 166.37 45.47 166.67 45.57 170.94 32.42 169.65 32 166.37 42.06 160.91 29.16 160.62 29.07 156.35 42.22 157.71 42.66 160.94 32.72"/>
        <polygon class="cls-5" points="188.51 56.16 184.01 53.35 190.63 42.76 189.45 42.02 182.12 53.74 187.81 57.29 188.51 56.16"/>
        <path class="cls-5" d="M117.85,32.8c1.24.71,2.11,1.35,2.62,1.91.37.4.58.83.63,1.3.05.4-.01.8-.18,1.19-.16.39-.44.71-.82.98-.38.26-.8.42-1.25.48-1.08.13-2.12-.51-3.12-1.91l-1.08.84c.7.97,1.42,1.64,2.15,2,.73.36,1.51.49,2.35.39,1.08-.13,1.96-.61,2.62-1.44.66-.83.94-1.74.81-2.73-.08-.69-.39-1.35-.91-1.98-.53-.63-1.44-1.31-2.73-2.04-1.09-.62-1.74-1-1.94-1.16-.37-.28-.63-.56-.79-.83-.16-.27-.25-.55-.29-.85-.06-.49.07-.93.38-1.3.31-.38.74-.61,1.3-.68.43-.05.84.01,1.22.18.39.17.89.57,1.49,1.19l1.01-.99c-.73-.78-1.4-1.3-2-1.54-.6-.25-1.22-.34-1.87-.26-.61.07-1.16.28-1.64.63-.49.35-.84.78-1.07,1.31-.22.53-.3,1.08-.23,1.69.09.75.42,1.42.99,2.01.33.35,1.12.89,2.37,1.61Z"/>
        <path class="cls-5" d="M73.86,57.59l-3.69-5.27.65-.45,7.74,2.42,1.4-.98-7.76-2.41c.95-.67,1.6-1.31,1.98-1.93.37-.62.54-1.26.5-1.93-.04-.67-.27-1.31-.7-1.92-.52-.74-1.16-1.22-1.94-1.43-.77-.21-1.55-.16-2.33.16-.52.21-1.41.75-2.67,1.63l-2.25,1.58,7.93,11.32,1.13-.79ZM66.7,47.38l1.99-1.39c.78-.54,1.38-.86,1.8-.97.43-.1.85-.07,1.27.1.42.16.77.44,1.03.82.27.39.42.82.43,1.27.02.46-.1.88-.36,1.28-.26.4-.77.86-1.52,1.38l-1.96,1.35-2.7-3.85Z"/>
        <path class="cls-5" d="M241.3,136.09c-.28-.53-.66-.94-1.15-1.24-.49-.29-1.03-.45-1.64-.46-.76-.01-1.47.22-2.13.7-.39.27-1.03.98-1.93,2.12-.88,1.13-1.64,1.91-2.26,2.33-.45.31-.9.46-1.37.45-.41,0-.79-.12-1.15-.34-.36-.22-.65-.53-.86-.94-.21-.41-.31-.85-.3-1.31.02-1.09.79-2.03,2.33-2.83l-.68-1.19c-1.06.56-1.82,1.18-2.28,1.85-.46.68-.69,1.43-.71,2.27-.02,1.09.33,2.02,1.06,2.79.73.78,1.59,1.17,2.59,1.19.69.01,1.39-.2,2.09-.63.7-.43,1.49-1.24,2.4-2.42.76-1,1.24-1.58,1.41-1.76.34-.33.65-.55.93-.67.28-.12.58-.18.88-.17.49,0,.91.19,1.24.55.34.36.5.82.49,1.38,0,.43-.13.83-.35,1.19-.23.36-.69.8-1.39,1.31l.84,1.14c.87-.62,1.48-1.21,1.81-1.77.33-.56.5-1.16.51-1.82.01-.61-.12-1.19-.39-1.71Z"/>
        <path class="cls-5" d="M207.62,77.32c.65.8,1.41,1.3,2.3,1.51.89.21,1.71.17,2.46-.13.74-.29,1.59-.82,2.55-1.6l6.48-5.25-.87-1.07-6.48,5.25c-.85.69-1.43,1.1-1.77,1.25-.46.21-.92.31-1.36.31-.45,0-.88-.11-1.29-.31-.41-.2-.77-.48-1.05-.84-.33-.41-.56-.89-.7-1.45-.13-.56-.14-1.05-.01-1.48.13-.43.38-.84.76-1.24.17-.18.64-.58,1.4-1.21l6.48-5.25-.87-1.08-6.48,5.25c-1.09.88-1.79,1.56-2.1,2.03-.52.76-.72,1.61-.64,2.57.09.95.48,1.86,1.19,2.73Z"/>
        <rect class="cls-5" x="233.43" y="138.25" width="1.38" height="13.82" transform="translate(73 368.59) rotate(-86)"/>
        <polygon class="cls-5" points="224.56 159.89 224.21 161.21 230.59 162.92 236.43 169.01 236.84 167.47 232.24 162.64 238.65 160.7 239.07 159.16 230.95 161.6 224.56 159.89"/>
        <polygon class="cls-5" points="226.67 120.52 228.01 120.26 226.78 113.9 232.09 112.87 233.33 119.23 234.66 118.97 233.42 112.61 237.67 111.78 238.92 118.2 240.25 117.94 238.74 110.16 225.17 112.8 226.67 120.52"/>
        <path class="cls-5" d="M226.98,124.47l6.4-.56.07.79-5.97,5.5.15,1.71,5.97-5.51c.11,1.15.33,2.05.68,2.68.35.63.82,1.1,1.42,1.4.6.3,1.27.42,2.02.35.9-.08,1.64-.4,2.2-.96.57-.57.91-1.26,1.03-2.1.07-.55.05-1.59-.08-3.12l-.24-2.74-13.77,1.21.12,1.38ZM239.4,123.38l.21,2.42c.08.94.06,1.62-.07,2.04-.13.42-.37.77-.73,1.05-.36.28-.76.44-1.23.48-.47.04-.91-.04-1.32-.26-.4-.21-.71-.52-.93-.95-.21-.42-.36-1.1-.44-2.01l-.19-2.37,4.68-.41Z"/>
        <polygon class="cls-5" points="237.15 104.7 225.54 103.77 234.15 95.96 233.66 94.54 222.52 104.64 222.62 104.93 237.64 106.12 237.15 104.7"/>
        <rect class="cls-5" x="218.81" y="92.96" width="13.82" height="1.38" transform="translate(-18.43 104.21) rotate(-25.01)"/>
        <polygon class="cls-5" points="213.19 84.8 222.23 79.57 217.74 92.69 217.9 92.95 229.86 86.04 229.18 84.87 220.02 90.15 224.59 76.91 224.44 76.65 212.47 83.56 213.19 84.8"/>
        <polygon class="cls-5" points="238.8 152.44 226.52 150.28 226.27 151.66 238.56 153.83 238.02 156.87 239.35 157.1 240.66 149.64 239.34 149.4 238.8 152.44"/>
        <path class="cls-5" d="M99.31,224.95l-2.8,8.85c-.34,1.08-.63,1.79-.87,2.13-.24.34-.55.57-.93.7-.38.13-.76.13-1.14.01-.29-.09-.56-.24-.82-.47-.39-.34-.85-.86-1.39-1.56l-1.03.83c.46.72.92,1.26,1.37,1.63.45.37.94.64,1.47.81.71.22,1.36.25,1.95.09.6-.16,1.09-.48,1.47-.95.38-.47.79-1.39,1.22-2.75l2.81-8.9-1.32-.42Z"/>
        <path class="cls-5" d="M109.08,227.79l-9.59,11.91,1.5.36,3.17-3.92,5.79,1.39,1.05,4.93,1.44.35-3.03-14.95-.33-.08ZM105.08,234.99l3.48-4.32,1.11,5.42-4.6-1.11Z"/>
        <path class="cls-5" d="M123.6,237.29c-.34-.38-.85-.73-1.53-1.07.62-.23,1.11-.58,1.47-1.04.36-.46.59-.99.67-1.6.09-.65,0-1.27-.27-1.85-.27-.58-.68-1.04-1.23-1.37-.55-.33-1.36-.58-2.45-.72l-2.7-.36-1.81,13.71,3.76.5c1.36.18,2.48-.06,3.39-.71.91-.65,1.43-1.53,1.57-2.63.07-.54.03-1.06-.12-1.55-.15-.49-.4-.93-.74-1.31ZM118.72,230.8l1.58.21c.96.13,1.63.4,2.02.81.39.41.54.93.46,1.56-.06.47-.25.87-.56,1.22-.31.35-.7.58-1.17.7-.47.12-1.18.11-2.13-.01l-.78-.1.58-4.39ZM122.44,241.27c-.34.38-.75.63-1.25.77-.49.13-1.24.14-2.24,0l-1.69-.23.69-5.25.77.1c1.16.15,1.96.31,2.41.49.67.26,1.18.64,1.51,1.15.34.51.47,1.06.39,1.67-.06.49-.26.92-.6,1.29Z"/>
        <polygon class="cls-5" points="91.87 222.41 86.98 231.79 83.72 218.16 83.45 218.02 77.06 230.28 78.33 230.94 83.16 221.67 86.41 235.15 86.69 235.3 93.08 223.04 91.87 222.41"/>
        <path class="cls-5" d="M68.95,213.11c.59-.69.9-1.43.91-2.22,0-.79-.22-1.51-.69-2.17-.33-.46-1.09-1.21-2.29-2.23l-2.09-1.79-8.99,10.51,1.05.9,4.18-4.89.75.64c1.3,1.12,2.24,1.82,2.82,2.11.79.4,1.56.53,2.32.39.76-.13,1.44-.55,2.04-1.25ZM65.41,212.88c-.44-.16-1.03-.54-1.74-1.15l-1.76-1.54,3.05-3.57,1.86,1.59c.71.61,1.16,1.11,1.37,1.5.21.39.28.81.22,1.27-.06.46-.24.86-.54,1.21-.31.36-.69.61-1.13.74-.44.13-.88.12-1.33-.04Z"/>
        <polygon class="cls-5" points="154.35 227.44 156.45 237.81 145.34 229.27 145.05 229.33 147.8 242.88 149.2 242.59 147.12 232.35 158.13 240.78 158.43 240.72 155.68 227.17 154.35 227.44"/>
        <path class="cls-5" d="M136.21,238.96c-.08-1.78.03-3.52.33-5.21.3-1.69.72-3.18,1.28-4.47l-1.52.07c-.56,1.45-.97,3.01-1.22,4.69-.26,1.68-.34,3.4-.27,5.16.07,1.64.28,3.2.62,4.7.34,1.5.77,2.79,1.28,3.88l1.44-.06c-.54-1.14-.98-2.47-1.32-4-.35-1.52-.55-3.11-.62-4.76Z"/>
        <path class="cls-5" d="M79.49,215.97l-4.61,6.96c-.6.91-1.04,1.48-1.31,1.72-.38.33-.78.57-1.2.7-.43.13-.87.16-1.33.09-.46-.07-.88-.23-1.26-.48-.44-.29-.81-.68-1.1-1.17-.29-.5-.45-.96-.45-1.41,0-.44.11-.91.35-1.41.1-.22.43-.75.98-1.57l4.61-6.96-1.15-.76-4.61,6.96c-.77,1.17-1.24,2.03-1.4,2.57-.26.88-.21,1.76.16,2.64.37.88,1.02,1.63,1.95,2.25.85.57,1.74.82,2.65.75.91-.07,1.68-.36,2.3-.86.62-.5,1.27-1.26,1.96-2.29l4.61-6.96-1.15-.76Z"/>
        <rect class="cls-5" x="173.93" y="220.58" width="1.38" height="13.82" transform="translate(-78.55 92.76) rotate(-24.47)"/>
        <path class="cls-5" d="M194.05,217.53c-.97-1.31-2.02-2.5-3.14-3.55-1.12-1.06-2.2-1.89-3.24-2.51l-1.16.86c1.08.65,2.2,1.5,3.33,2.58,1.14,1.07,2.2,2.27,3.18,3.6,1.06,1.44,1.95,2.94,2.65,4.51.7,1.57,1.18,3.04,1.43,4.43l1.23-.91c-.35-1.51-.88-3.04-1.62-4.57-.73-1.54-1.61-3.01-2.66-4.42Z"/>
        <path class="cls-5" d="M169.08,225.7c-1.1-.84-2.36-1.26-3.78-1.25-.99,0-2.46.34-4.41,1.03l-2.7.96,4.61,13.03,4.15-1.47c1.62-.57,2.8-1.26,3.54-2.05.73-.79,1.21-1.79,1.42-2.98.21-1.19.09-2.44-.38-3.75-.53-1.51-1.35-2.69-2.45-3.53ZM170.45,233.06c-.27,1.03-.83,1.87-1.7,2.54-.62.48-1.83,1.03-3.63,1.66l-1.51.53-3.72-10.54.92-.32c1.87-.66,3.26-1.01,4.16-1.05,1.21-.05,2.27.26,3.19.93.92.68,1.61,1.64,2.05,2.9.43,1.2.5,2.31.23,3.34Z"/>
        <path class="cls-5" d="M179.64,217.33l1.38,15.23,1.33-.78-.44-5.02,5.13-3.02,4.18,2.82,1.28-.75-12.57-8.65-.29.17ZM185.83,222.9l-4.07,2.4-.49-5.52,4.57,3.13Z"/>
        <rect class="cls-5" x="141.64" y="229.58" width="1.38" height="13.83" transform="translate(-17.97 11.79) rotate(-4.46)"/>
        <path class="cls-5" d="M43.6,188.04c-2.35,0-4.27,1.91-4.27,4.27s1.91,4.27,4.27,4.27,4.26-1.91,4.26-4.27-1.91-4.27-4.26-4.27Z"/>
        <path class="cls-5" d="M216.36,188.04c-2.35,0-4.27,1.91-4.27,4.27s1.91,4.27,4.27,4.27,4.27-1.91,4.27-4.27-1.91-4.27-4.27-4.27Z"/>
      </g>
    </g>
  </g>
</svg>